<?xml version="1.0" encoding="utf-8"?>
<!-- Generator: Adobe Illustrator 22.0.1, SVG Export Plug-In . SVG Version: 6.00 Build 0)  -->
<svg version="1.1" id="Layer_1" xmlns="http://www.w3.org/2000/svg" xmlns:xlink="http://www.w3.org/1999/xlink" x="0px" y="0px"
	 viewBox="0 0 48 47" style="enable-background:new 0 0 48 47;" xml:space="preserve">
<style type="text/css">
	.st0{fill:#FFFFFF;}
</style>
<g>
	<g>
		<path class="st0" d="M14.9,18.8v-1.7c-1.7-1.4-2.8-3.5-2.8-5.9c0-4.2,3.5-7.7,7.7-7.7s7.7,3.5,7.7,7.7c0,1.8-0.7,3.6-1.8,4.9
			c0.6,0,1,0.1,1.6,0.2c1.1-1.6,1.7-3.4,1.7-5.3c0-5-4.1-9-9-9s-9,4.1-9,9C10.8,14.2,12.5,17.1,14.9,18.8z"/>
		<path class="st0" d="M26,11.1c0-3.5-2.8-6.2-6.2-6.2s-6.2,2.8-6.2,6.2c0,1.6,0.6,2.9,1.4,3.8v-3.8c0-2.6,2.3-4.9,4.9-4.9
			s4.9,2.3,4.9,4.9v3.8C25.4,14,26,12.7,26,11.1z"/>
		<path class="st0" d="M36.5,21.6c-0.8,0-1.6,0.2-2,0.7l0,0c0-1.9-1.6-3.5-3.5-3.5c-0.8,0-1.7,0.2-2.4,0.8c-0.6-1.4-1.8-2.3-3.2-2.3
			c-0.8,0-1.6,0.2-2,0.7v-7c0-1.9-1.6-3.5-3.5-3.5S16.4,9,16.4,11v12.4c-2.8-2.5-5.9-4.4-7.8-2.5c-2.8,2.8,3,8.2,7.6,16.4
			c3.2,5.6,7.7,7.8,12.1,7.8c6.6,0,11.9-5.3,11.9-11.9v-8.4C39.9,23,38.4,21.6,36.5,21.6z"/>
	</g>
</g>
</svg>
