<?xml version="1.0" encoding="utf-8"?>
<!-- Generator: Adobe Illustrator 22.0.1, SVG Export Plug-In . SVG Version: 6.00 Build 0)  -->
<svg version="1.1" id="Layer_1" xmlns="http://www.w3.org/2000/svg" xmlns:xlink="http://www.w3.org/1999/xlink" x="0px" y="0px"
	 viewBox="0 0 48 47" style="enable-background:new 0 0 48 47;" xml:space="preserve">
<style type="text/css">
	.st0{fill-rule:evenodd;clip-rule:evenodd;fill:#838382;}
	.st1{fill:#838382;}
</style>
<g>
	<polygon class="st0" points="-292.7,55.1 -290.5,55.1 -287.3,51 -292.7,51 	"/>
	<g>
		<path class="st0" d="M-276.2,60.9c-0.1-0.2-0.4-0.3-0.7-0.3h-5.2l-1.4-1.4l-2.2-2.2c-0.2-0.2-0.4-0.3-0.7-0.3
			c-0.2,0-0.5,0.1-0.7,0.3c-0.1,0.2-0.3,0.4-0.3,0.7c0,0.2,0.1,0.5,0.3,0.7l4,4c0.1,0.1,0.2,0.1,0.3,0.2c0.1,0,0.2,0.1,0.4,0.1h5.6
			c0.3,0,0.5-0.1,0.7-0.3c0.2-0.2,0.3-0.4,0.3-0.7C-275.9,61.3-276,61.1-276.2,60.9z M-276.2,60.9c-0.1-0.2-0.4-0.3-0.7-0.3h-5.2
			l-1.4-1.4l-2.2-2.2c-0.2-0.2-0.4-0.3-0.7-0.3c-0.2,0-0.5,0.1-0.7,0.3c-0.1,0.2-0.3,0.4-0.3,0.7c0,0.2,0.1,0.5,0.3,0.7l4,4
			c0.1,0.1,0.2,0.1,0.3,0.2c0.1,0,0.2,0.1,0.4,0.1h5.6c0.3,0,0.5-0.1,0.7-0.3c0.2-0.2,0.3-0.4,0.3-0.7
			C-275.9,61.3-276,61.1-276.2,60.9z M-276.2,60.9c-0.1-0.2-0.4-0.3-0.7-0.3h-5.2l-1.4-1.4l-2.2-2.2c-0.2-0.2-0.4-0.3-0.7-0.3
			c-0.2,0-0.5,0.1-0.7,0.3c-0.1,0.2-0.3,0.4-0.3,0.7c0,0.2,0.1,0.5,0.3,0.7l4,4c0.1,0.1,0.2,0.1,0.3,0.2c0.1,0,0.2,0.1,0.4,0.1h5.6
			c0.3,0,0.5-0.1,0.7-0.3c0.2-0.2,0.3-0.4,0.3-0.7C-275.9,61.3-276,61.1-276.2,60.9z M-276.2,60.9c-0.1-0.2-0.4-0.3-0.7-0.3h-5.2
			l-1.4-1.4l-2.2-2.2c-0.2-0.2-0.4-0.3-0.7-0.3c-0.2,0-0.5,0.1-0.7,0.3c-0.1,0.2-0.3,0.4-0.3,0.7c0,0.2,0.1,0.5,0.3,0.7l4,4
			c0.1,0.1,0.2,0.1,0.3,0.2c0.1,0,0.2,0.1,0.4,0.1h5.6c0.3,0,0.5-0.1,0.7-0.3c0.2-0.2,0.3-0.4,0.3-0.7
			C-275.9,61.3-276,61.1-276.2,60.9z M-276.2,60.9c-0.1-0.2-0.4-0.3-0.7-0.3h-5.2l-1.4-1.4l-2.2-2.2c-0.2-0.2-0.4-0.3-0.7-0.3
			c-0.2,0-0.5,0.1-0.7,0.3c-0.1,0.2-0.3,0.4-0.3,0.7c0,0.2,0.1,0.5,0.3,0.7l4,4c0.1,0.1,0.2,0.1,0.3,0.2c0.1,0,0.2,0.1,0.4,0.1h5.6
			c0.3,0,0.5-0.1,0.7-0.3c0.2-0.2,0.3-0.4,0.3-0.7C-275.9,61.3-276,61.1-276.2,60.9z M-276.2,60.9c-0.1-0.2-0.4-0.3-0.7-0.3h-5.2
			l-1.4-1.4l-2.2-2.2c-0.2-0.2-0.4-0.3-0.7-0.3c-0.2,0-0.5,0.1-0.7,0.3c-0.1,0.2-0.3,0.4-0.3,0.7c0,0.2,0.1,0.5,0.3,0.7l4,4
			c0.1,0.1,0.2,0.1,0.3,0.2c0.1,0,0.2,0.1,0.4,0.1h5.6c0.3,0,0.5-0.1,0.7-0.3c0.2-0.2,0.3-0.4,0.3-0.7
			C-275.9,61.3-276,61.1-276.2,60.9z M-273.7,51.7c-0.4-0.4-0.7-0.7-1.2-1c-0.6-0.5-1.3-0.9-2-1.2c-1.4-0.7-3-1.1-4.7-1.1
			c-0.6,0-1.3,0.1-1.9,0.2c-2.3,0.4-4.4,1.5-6.1,3.1c-2,2-3.3,4.8-3.3,7.9c0,1.2,0.2,2.3,0.5,3.3c0.2,0.6,0.5,1.3,0.8,1.9
			c0.4,0.8,0.9,1.6,1.5,2.2c0.1,0.2,0.3,0.3,0.4,0.5c0.6,0.6,1.2,1.1,2,1.5c1.7,1.1,3.8,1.7,6,1.7c3.1,0,5.9-1.2,7.9-3.3
			c2-2,3.3-4.8,3.3-7.9C-270.4,56.5-271.7,53.7-273.7,51.7z M-275,66.2c-1.7,1.7-4,2.7-6.6,2.7c-0.6,0-1.3-0.1-1.9-0.2
			c-1.4-0.3-2.7-0.9-3.8-1.7c-0.4-0.2-0.7-0.5-1-0.8c-0.4-0.4-0.8-0.9-1.1-1.4c-0.4-0.6-0.7-1.2-1-1.9c-0.4-1-0.6-2.2-0.6-3.3
			c0-2.6,1-4.9,2.7-6.6c1.3-1.3,2.9-2.2,4.8-2.5c0.6-0.1,1.2-0.2,1.9-0.2c1.7,0,3.3,0.5,4.7,1.3c0.7,0.4,1.3,0.9,1.9,1.4
			c0.1,0.1,0.1,0.1,0.2,0.2c1.6,1.7,2.6,3.9,2.6,6.4C-272.3,62.2-273.3,64.5-275,66.2z M-276.9,60.7h-5.2l-1.4-1.4l-2.2-2.2
			c-0.2-0.2-0.4-0.3-0.7-0.3c-0.2,0-0.5,0.1-0.7,0.3c-0.1,0.2-0.3,0.4-0.3,0.7c0,0.2,0.1,0.5,0.3,0.7l4,4c0.1,0.1,0.2,0.1,0.3,0.2
			c0.1,0,0.2,0.1,0.4,0.1h5.6c0.3,0,0.5-0.1,0.7-0.3c0.2-0.2,0.3-0.4,0.3-0.7c0-0.3-0.1-0.5-0.3-0.7
			C-276.4,60.8-276.6,60.7-276.9,60.7z M-276.2,60.9c-0.1-0.2-0.4-0.3-0.7-0.3h-5.2l-1.4-1.4l-2.2-2.2c-0.2-0.2-0.4-0.3-0.7-0.3
			c-0.2,0-0.5,0.1-0.7,0.3c-0.1,0.2-0.3,0.4-0.3,0.7c0,0.2,0.1,0.5,0.3,0.7l4,4c0.1,0.1,0.2,0.1,0.3,0.2c0.1,0,0.2,0.1,0.4,0.1h5.6
			c0.3,0,0.5-0.1,0.7-0.3c0.2-0.2,0.3-0.4,0.3-0.7C-275.9,61.3-276,61.1-276.2,60.9z M-276.2,60.9c-0.1-0.2-0.4-0.3-0.7-0.3h-5.2
			l-1.4-1.4l-2.2-2.2c-0.2-0.2-0.4-0.3-0.7-0.3c-0.2,0-0.5,0.1-0.7,0.3c-0.1,0.2-0.3,0.4-0.3,0.7c0,0.2,0.1,0.5,0.3,0.7l4,4
			c0.1,0.1,0.2,0.1,0.3,0.2c0.1,0,0.2,0.1,0.4,0.1h5.6c0.3,0,0.5-0.1,0.7-0.3c0.2-0.2,0.3-0.4,0.3-0.7
			C-275.9,61.3-276,61.1-276.2,60.9z"/>
	</g>
</g>
<g>
</g>
<g>
	<g>
		<path class="st1" d="M24,8.2c-8.6,0-15.6,7-15.6,15.6c0,8.6,7,15.6,15.6,15.6c8.6,0,15.6-7,15.6-15.6C39.6,15.2,32.6,8.2,24,8.2z
			 M24,37.3c-7.5,0-13.5-6-13.5-13.5c0-7.5,6-13.5,13.5-13.5c7.4,0,13.5,6,13.5,13.5C37.5,31.3,31.5,37.3,24,37.3z"/>
	</g>
	<g>
		<rect x="22.5" y="15.4" class="st1" width="3" height="7.4"/>
		<path class="st1" d="M24,32.2c-4.3,0-7.9-3.5-7.9-7.9c0-3.1,1.9-5.9,4.7-7.2l0.2-0.1v2.7c-1.6,1-2.5,2.7-2.5,4.6
			c0,3,2.5,5.5,5.5,5.5c3,0,5.5-2.5,5.5-5.5c0-1.9-0.9-3.6-2.5-4.6v-2.7l0.2,0.1c2.9,1.3,4.7,4.1,4.7,7.2
			C31.9,28.7,28.3,32.2,24,32.2z"/>
	</g>
</g>
</svg>
