<?xml version="1.0" encoding="utf-8"?>
<!-- Generator: Adobe Illustrator 21.1.0, SVG Export Plug-In . SVG Version: 6.00 Build 0)  -->
<svg version="1.1" id="Layer_1" xmlns="http://www.w3.org/2000/svg" xmlns:xlink="http://www.w3.org/1999/xlink" x="0px" y="0px"
	 viewBox="0 0 48 47" style="enable-background:new 0 0 48 47;" xml:space="preserve">
<style type="text/css">
	.st0{fill:#FFFFFF;}
</style>
<path class="st0" d="M19.2,36.2L19.2,36.2c-0.2,0-0.6-0.1-1-0.2c-0.4-0.2-0.6-0.4-0.8-0.6l-6-6c-0.5-0.4-0.7-1.1-0.7-1.9
	c0-0.7,0.2-1.3,0.7-1.8s1.2-0.7,1.9-0.7s1.3,0.2,1.8,0.7l4,4.2l13.7-13.6c0.5-0.5,1.1-0.7,1.9-0.7c0.7,0,1.3,0.2,1.8,0.7
	c0.6,0.4,0.7,1.2,0.7,1.9c0,0.7-0.2,1.3-0.7,1.8L21.1,35.4c-0.3,0.2-0.6,0.4-0.8,0.6C19.9,36.1,19.5,36.2,19.2,36.2L19.2,36.2z"/>
</svg>
