<?xml version="1.0" encoding="utf-8"?>
<!-- Generator: Adobe Illustrator 22.0.1, SVG Export Plug-In . SVG Version: 6.00 Build 0)  -->
<svg version="1.1" id="Layer_1" xmlns="http://www.w3.org/2000/svg" xmlns:xlink="http://www.w3.org/1999/xlink" x="0px" y="0px"
	 viewBox="0 0 48 47" style="enable-background:new 0 0 48 47;" xml:space="preserve">
<style type="text/css">
	.st0{fill:#838382;}
</style>
<path class="st0" d="M16.7,39.6L16.7,39.6c-0.3,0-0.9-0.2-1.5-0.3c-0.6-0.3-0.9-0.6-1.2-0.9l-9.2-9.2c-0.8-0.6-1.1-1.7-1.1-2.9
	c0-1.1,0.3-2,1.1-2.8s1.8-1.1,2.9-1.1s2,0.3,2.8,1.1l6.1,6.4l21-20.8C38.3,8.3,39.2,8,40.5,8c1.1,0,2,0.3,2.8,1.1
	c0.9,0.6,1.1,1.8,1.1,2.9s-0.3,2-1.1,2.8L19.6,38.3c-0.5,0.3-0.9,0.6-1.2,0.9C17.8,39.4,17.2,39.6,16.7,39.6L16.7,39.6z"/>
</svg>
