<?xml version="1.0" encoding="utf-8"?>
<!-- Generator: Adobe Illustrator 21.1.0, SVG Export Plug-In . SVG Version: 6.00 Build 0)  -->
<svg version="1.1" id="Layer_1" xmlns="http://www.w3.org/2000/svg" xmlns:xlink="http://www.w3.org/1999/xlink" x="0px" y="0px"
	 viewBox="0 0 48 47" style="enable-background:new 0 0 48 47;" xml:space="preserve">
<style type="text/css">
	.st0{fill:#838382;}
	.st1{clip-path:url(#SVGID_2_);fill:#838382;}
</style>
<g>
	<g>
		<g>
			<polygon class="st0" points="17.5,16.8 4.8,16.8 5.9,17.8 17.5,17.8 			"/>
			<polygon class="st0" points="17.5,19.5 7.6,19.5 8.6,20.6 17.5,20.6 			"/>
			<path class="st0" d="M17.5,22.3L17.5,22.3l-7.3-0.1l1.1,1.1l6.4,0C17.6,23,17.5,22.6,17.5,22.3z"/>
			<polygon class="st0" points="44.1,24.9 13,24.9 14,26 43.1,26 			"/>
			<polygon class="st0" points="16.7,28.7 40.8,28.7 41.9,27.6 15.7,27.6 			"/>
			<polygon class="st0" points="19.5,31.4 38.1,31.4 39.2,30.3 18.4,30.3 			"/>
			<polygon class="st0" points="22.2,34.1 35.4,34.1 36.5,33 21.1,33 			"/>
			<polygon class="st0" points="24.9,36.8 32.7,36.8 33.7,35.8 23.8,35.8 			"/>
			<polygon class="st0" points="27.6,39.5 30,39.5 31,38.5 26.5,38.5 			"/>
		</g>
		<g>
			<defs>
				<polygon id="SVGID_1_" points="41.7,18 46.5,22.8 44.3,24.9 21.9,25.6 18.8,24.3 17.4,16.4 3.9,15.9 -2.5,9.5 20.7,7.8 
					25.1,13.3 				"/>
			</defs>
			<clipPath id="SVGID_2_">
				<use xlink:href="#SVGID_1_"  style="overflow:visible;"/>
			</clipPath>
			<path class="st1" d="M51.4,22.6c0.2-0.2,0.4-0.6,0.4-0.9c0-0.3-0.1-0.6-0.4-0.9l-5.5-5.5c-0.1-0.1-0.2-0.2-0.4-0.2
				c0,0-0.1,0-0.1,0c-0.5-0.2-1-0.1-1.3,0.3c-0.4,0.4-0.5,0.9-0.3,1.4c0.1,0.1,0.2,0.3,0.3,0.4l1.9,1.9c0.1,0.1,0.2,0.3,0.1,0.5
				c-0.1,0.2-0.2,0.3-0.4,0.3l-22.9,0c-0.1,0-0.2-0.1-0.3-0.1c-0.1-0.1-0.1-0.2-0.1-0.3l0-6.5c0-0.4-0.2-0.7-0.4-1
				c-0.3-0.3-0.6-0.4-1-0.4L1.1,11.1L4,14l15.1,0.2c0.1,0,0.2,0.1,0.3,0.1c0.1,0.1,0.1,0.2,0.1,0.3l0,6.5c0,0.4,0.2,0.7,0.4,1
				c0.3,0.3,0.6,0.4,1,0.4l25.7,0c0,0,0,0,0.1,0l0.1,0c0.1,0,0.2,0.1,0.3,0.1c0,0,0.1,0.1,0.1,0.2c0.1,0.2,0,0.3-0.1,0.5l-2.7,2.7
				c-0.5,0.5-0.5,1.3,0,1.8s1.3,0.5,1.8,0L51.4,22.6z"/>
		</g>
	</g>
	<g>
		<rect x="29.5" y="9.2" class="st0" width="5.6" height="2.6"/>
		<polygon class="st0" points="32.4,11.3 32.2,11.3 27.2,11.3 27.2,15.8 28.3,15.3 28.3,12.5 30.1,12.5 30.1,14.5 31.4,13.9 
			31.4,12.5 32.2,12.5 32.4,12.5 33.2,12.5 33.2,13.9 34.5,14.5 34.5,12.5 36.3,12.5 36.3,15.3 37.4,15.8 37.4,11.3 		"/>
		<path class="st0" d="M32.3,14.4L32.3,14.4L32.3,14.4L32.3,14.4L32.3,14.4l-7.3,3.3l1.1,3.1c0.2,0.7,0.6,1.3,1.1,1.8c0,0,0,0,0,0
			l0,0c0.1-0.1,0.3-0.2,0.4-0.3l0.1-0.1c0.2-0.1,0.4-0.3,0.6-0.5c0.6-0.5,1.3-0.8,2-1.1c0.3-0.1,0.7-0.2,1.1-0.3l0,0l0.1,0
			c0.1,0,0.1,0,0.2,0l0.1-2.2c0-0.8,0.1-1.4,0.3-1.9l0.1-0.3l0.1,0.3c0.1,0.5,0.2,1.1,0.3,1.9l0.1,2.2c0.1,0,0.2,0,0.2,0l0.1,0l0,0
			c0.4,0.1,0.8,0.1,1.1,0.3c0.7,0.2,1.4,0.6,2,1.1c0.2,0.2,0.4,0.3,0.6,0.5l0.1,0.1c0.2,0.1,0.3,0.3,0.4,0.3l0,0c0,0,0,0,0,0
			c0.5-0.5,0.8-1.1,1.1-1.8l1.1-3.1L32.3,14.4z"/>
		<g>
			<rect x="31.3" y="7.7" class="st0" width="2.1" height="1.7"/>
			<rect x="31.3" y="6.9" class="st0" width="2.1" height="0.5"/>
		</g>
	</g>
</g>
</svg>
