<?xml version="1.0" encoding="utf-8"?>
<!-- Generator: Adobe Illustrator 21.1.0, SVG Export Plug-In . SVG Version: 6.00 Build 0)  -->
<svg version="1.1" id="Layer_1" xmlns="http://www.w3.org/2000/svg" xmlns:xlink="http://www.w3.org/1999/xlink" x="0px" y="0px"
	 viewBox="0 0 48 47" style="enable-background:new 0 0 48 47;" xml:space="preserve">
<style type="text/css">
	.st0{fill:#FFFFFF;}
</style>
<g>
	<path class="st0" d="M24,9.8c-7.6,0-13.7,6.1-13.7,13.7S16.4,37.2,24,37.2s13.7-6.1,13.7-13.7S31.6,9.8,24,9.8L24,9.8z M13.6,23.5
		L13.6,23.5c0-5.8,4.7-10.4,10.4-10.4c2.2,0,4.2,0.7,5.9,1.9L15.7,29.8C14.4,28.1,13.6,25.9,13.6,23.5L13.6,23.5z M24,33.9L24,33.9
		c-2.2,0-4.2-0.7-5.9-1.8l14.2-14.9c1.3,1.8,2.2,3.9,2.2,6.3C34.4,29.3,29.8,33.9,24,33.9L24,33.9z"/>
</g>
</svg>
