<?xml version="1.0" encoding="utf-8"?>
<!-- Generator: Adobe Illustrator 21.1.0, SVG Export Plug-In . SVG Version: 6.00 Build 0)  -->
<svg version="1.1" id="Layer_1" xmlns="http://www.w3.org/2000/svg" xmlns:xlink="http://www.w3.org/1999/xlink" x="0px" y="0px"
	 viewBox="0 0 48 47" style="enable-background:new 0 0 48 47;" xml:space="preserve">
<style type="text/css">
	.st0{fill:#838382;}
</style>
<g>
	<path class="st0" d="M26.1,10c0-0.1,0-0.2,0-0.4c0-1.8-1.4-3.2-3.2-3.2c-1.8,0-3.2,1.4-3.2,3.2c0,0.1,0,0.2,0,0.4h-2v2.2
		c0,0.8,0.6,1.4,1.4,1.4h7.7c0.8,0,1.4-0.6,1.4-1.4V10H26.1z M23,7.6c0.6,0,1.2,0.5,1.2,1.2c0,0.6-0.5,1.2-1.2,1.2
		c-0.6,0-1.2-0.5-1.2-1.2C21.8,8.1,22.3,7.6,23,7.6z"/>
	<g>
		<path class="st0" d="M34.7,12.2c-0.2-1-1-1.7-2-1.7h-0.8V15L34.7,12.2z"/>
		<path class="st0" d="M31.9,27.2v8.5H14V10.5h-0.8c-1.1,0-2,0.9-2,2v26c0,1.1,0.9,2,2,2h19.5c1.1,0,2-0.9,2-2V24.4L31.9,27.2z"/>
	</g>
	<g>
		<path class="st0" d="M24.6,25.2c0.6,0.3,1.2,0.8,1.8,1.3c0.6,0.6,1,1.2,1.3,1.8c0,0,13.1-13,14-13.9c-0.9-2.3-3.1-3.2-3.1-3.2
			L24.6,25.2z"/>
		<path class="st0" d="M24.4,29.7c0.2,0.2,0.2,0.5-0.2,0.6l-1.4,0.4c-0.3,0.1-0.5-0.1-0.4-0.4l0.4-1.4c0.1-0.3,0.3-0.4,0.6-0.1
			L24.4,29.7z"/>
	</g>
	<polygon class="st0" points="24.7,22.1 15.8,22.1 15.8,23.1 23.7,23.1 	"/>
	<polygon class="st0" points="27.4,19.4 15.8,19.4 15.8,20.4 26.4,20.4 	"/>
	<polygon class="st0" points="30.1,16.8 30.1,16.7 15.8,16.7 15.8,17.7 29.1,17.7 	"/>
</g>
</svg>
