<?xml version="1.0" encoding="utf-8"?>
<!-- Generator: Adobe Illustrator 22.0.1, SVG Export Plug-In . SVG Version: 6.00 Build 0)  -->
<svg version="1.1" id="Layer_1" xmlns="http://www.w3.org/2000/svg" xmlns:xlink="http://www.w3.org/1999/xlink" x="0px" y="0px"
	 viewBox="0 0 48 47" style="enable-background:new 0 0 48 47;" xml:space="preserve">
<style type="text/css">
	.st0{fill-rule:evenodd;clip-rule:evenodd;fill:#838382;}
	.st1{fill:#838382;}
</style>
<g>
	<polygon class="st0" points="-292.7,55.1 -290.5,55.1 -287.3,51 -292.7,51 	"/>
	<g>
		<path class="st0" d="M-276.2,60.9c-0.1-0.2-0.4-0.3-0.7-0.3h-5.2l-1.4-1.4l-2.2-2.2c-0.2-0.2-0.4-0.3-0.7-0.3
			c-0.2,0-0.5,0.1-0.7,0.3c-0.1,0.2-0.3,0.4-0.3,0.7c0,0.2,0.1,0.5,0.3,0.7l4,4c0.1,0.1,0.2,0.1,0.3,0.2c0.1,0,0.2,0.1,0.4,0.1h5.6
			c0.3,0,0.5-0.1,0.7-0.3c0.2-0.2,0.3-0.4,0.3-0.7C-275.9,61.3-276,61.1-276.2,60.9z M-276.2,60.9c-0.1-0.2-0.4-0.3-0.7-0.3h-5.2
			l-1.4-1.4l-2.2-2.2c-0.2-0.2-0.4-0.3-0.7-0.3c-0.2,0-0.5,0.1-0.7,0.3c-0.1,0.2-0.3,0.4-0.3,0.7c0,0.2,0.1,0.5,0.3,0.7l4,4
			c0.1,0.1,0.2,0.1,0.3,0.2c0.1,0,0.2,0.1,0.4,0.1h5.6c0.3,0,0.5-0.1,0.7-0.3c0.2-0.2,0.3-0.4,0.3-0.7
			C-275.9,61.3-276,61.1-276.2,60.9z M-276.2,60.9c-0.1-0.2-0.4-0.3-0.7-0.3h-5.2l-1.4-1.4l-2.2-2.2c-0.2-0.2-0.4-0.3-0.7-0.3
			c-0.2,0-0.5,0.1-0.7,0.3c-0.1,0.2-0.3,0.4-0.3,0.7c0,0.2,0.1,0.5,0.3,0.7l4,4c0.1,0.1,0.2,0.1,0.3,0.2c0.1,0,0.2,0.1,0.4,0.1h5.6
			c0.3,0,0.5-0.1,0.7-0.3c0.2-0.2,0.3-0.4,0.3-0.7C-275.9,61.3-276,61.1-276.2,60.9z M-276.2,60.9c-0.1-0.2-0.4-0.3-0.7-0.3h-5.2
			l-1.4-1.4l-2.2-2.2c-0.2-0.2-0.4-0.3-0.7-0.3c-0.2,0-0.5,0.1-0.7,0.3c-0.1,0.2-0.3,0.4-0.3,0.7c0,0.2,0.1,0.5,0.3,0.7l4,4
			c0.1,0.1,0.2,0.1,0.3,0.2c0.1,0,0.2,0.1,0.4,0.1h5.6c0.3,0,0.5-0.1,0.7-0.3c0.2-0.2,0.3-0.4,0.3-0.7
			C-275.9,61.3-276,61.1-276.2,60.9z M-276.2,60.9c-0.1-0.2-0.4-0.3-0.7-0.3h-5.2l-1.4-1.4l-2.2-2.2c-0.2-0.2-0.4-0.3-0.7-0.3
			c-0.2,0-0.5,0.1-0.7,0.3c-0.1,0.2-0.3,0.4-0.3,0.7c0,0.2,0.1,0.5,0.3,0.7l4,4c0.1,0.1,0.2,0.1,0.3,0.2c0.1,0,0.2,0.1,0.4,0.1h5.6
			c0.3,0,0.5-0.1,0.7-0.3c0.2-0.2,0.3-0.4,0.3-0.7C-275.9,61.3-276,61.1-276.2,60.9z M-276.2,60.9c-0.1-0.2-0.4-0.3-0.7-0.3h-5.2
			l-1.4-1.4l-2.2-2.2c-0.2-0.2-0.4-0.3-0.7-0.3c-0.2,0-0.5,0.1-0.7,0.3c-0.1,0.2-0.3,0.4-0.3,0.7c0,0.2,0.1,0.5,0.3,0.7l4,4
			c0.1,0.1,0.2,0.1,0.3,0.2c0.1,0,0.2,0.1,0.4,0.1h5.6c0.3,0,0.5-0.1,0.7-0.3c0.2-0.2,0.3-0.4,0.3-0.7
			C-275.9,61.3-276,61.1-276.2,60.9z M-273.7,51.7c-0.4-0.4-0.7-0.7-1.2-1c-0.6-0.5-1.3-0.9-2-1.2c-1.4-0.7-3-1.1-4.7-1.1
			c-0.6,0-1.3,0.1-1.9,0.2c-2.3,0.4-4.4,1.5-6.1,3.1c-2,2-3.3,4.8-3.3,7.9c0,1.2,0.2,2.3,0.5,3.3c0.2,0.6,0.5,1.3,0.8,1.9
			c0.4,0.8,0.9,1.6,1.5,2.2c0.1,0.2,0.3,0.3,0.4,0.5c0.6,0.6,1.2,1.1,2,1.5c1.7,1.1,3.8,1.7,6,1.7c3.1,0,5.9-1.2,7.9-3.3
			c2-2,3.3-4.8,3.3-7.9C-270.4,56.5-271.7,53.7-273.7,51.7z M-275,66.2c-1.7,1.7-4,2.7-6.6,2.7c-0.6,0-1.3-0.1-1.9-0.2
			c-1.4-0.3-2.7-0.9-3.8-1.7c-0.4-0.2-0.7-0.5-1-0.8c-0.4-0.4-0.8-0.9-1.1-1.4c-0.4-0.6-0.7-1.2-1-1.9c-0.4-1-0.6-2.2-0.6-3.3
			c0-2.6,1-4.9,2.7-6.6c1.3-1.3,2.9-2.2,4.8-2.5c0.6-0.1,1.2-0.2,1.9-0.2c1.7,0,3.3,0.5,4.7,1.3c0.7,0.4,1.3,0.9,1.9,1.4
			c0.1,0.1,0.1,0.1,0.2,0.2c1.6,1.7,2.6,3.9,2.6,6.4C-272.3,62.2-273.3,64.5-275,66.2z M-276.9,60.7h-5.2l-1.4-1.4l-2.2-2.2
			c-0.2-0.2-0.4-0.3-0.7-0.3c-0.2,0-0.5,0.1-0.7,0.3c-0.1,0.2-0.3,0.4-0.3,0.7c0,0.2,0.1,0.5,0.3,0.7l4,4c0.1,0.1,0.2,0.1,0.3,0.2
			c0.1,0,0.2,0.1,0.4,0.1h5.6c0.3,0,0.5-0.1,0.7-0.3c0.2-0.2,0.3-0.4,0.3-0.7c0-0.3-0.1-0.5-0.3-0.7
			C-276.4,60.8-276.6,60.7-276.9,60.7z M-276.2,60.9c-0.1-0.2-0.4-0.3-0.7-0.3h-5.2l-1.4-1.4l-2.2-2.2c-0.2-0.2-0.4-0.3-0.7-0.3
			c-0.2,0-0.5,0.1-0.7,0.3c-0.1,0.2-0.3,0.4-0.3,0.7c0,0.2,0.1,0.5,0.3,0.7l4,4c0.1,0.1,0.2,0.1,0.3,0.2c0.1,0,0.2,0.1,0.4,0.1h5.6
			c0.3,0,0.5-0.1,0.7-0.3c0.2-0.2,0.3-0.4,0.3-0.7C-275.9,61.3-276,61.1-276.2,60.9z M-276.2,60.9c-0.1-0.2-0.4-0.3-0.7-0.3h-5.2
			l-1.4-1.4l-2.2-2.2c-0.2-0.2-0.4-0.3-0.7-0.3c-0.2,0-0.5,0.1-0.7,0.3c-0.1,0.2-0.3,0.4-0.3,0.7c0,0.2,0.1,0.5,0.3,0.7l4,4
			c0.1,0.1,0.2,0.1,0.3,0.2c0.1,0,0.2,0.1,0.4,0.1h5.6c0.3,0,0.5-0.1,0.7-0.3c0.2-0.2,0.3-0.4,0.3-0.7
			C-275.9,61.3-276,61.1-276.2,60.9z"/>
	</g>
</g>
<path class="st1" d="M36.8,26.8c-0.1-1.2-1.2-2-2.4-1.9l-3.2,0.3l0-0.1l2.5-0.3c1-0.1,1.8-1.1,1.7-2.3c-0.1-1.2-1.1-2.1-2.1-1.9
	l-8.5,0.9l-1.2,0c0,0,1.7-0.8,0.4-7.1c-1.3-6.3-4.9-3.9-4.9-3.9s0,5.4-0.2,6.2c-0.2,0.8-4.3,8.8-4.3,8.8c0,0.4-2.6,0.9-2.6,1.3
	c0,3.7,0,6.9,0,10.7c2.8-0.7,4.2,1.4,10.1,1.4c1.9,0,4.3-0.3,6.3-0.6l5.3-0.5c0.9-0.1,1.6-1.1,1.4-2.3c-0.1-0.9-0.6-1.6-1.3-1.9
	l0.7-0.1c1-0.1,1.8-1.2,1.7-2.3c-0.1-1-0.8-1.8-1.7-1.9l0.3,0C36,29.1,36.9,28,36.8,26.8z"/>
</svg>
