<?xml version="1.0" encoding="utf-8"?>
<!-- Generator: Adobe Illustrator 21.1.0, SVG Export Plug-In . SVG Version: 6.00 Build 0)  -->
<svg version="1.1" id="Layer_1" xmlns="http://www.w3.org/2000/svg" xmlns:xlink="http://www.w3.org/1999/xlink" x="0px" y="0px"
	 viewBox="0 0 48 47" style="enable-background:new 0 0 48 47;" xml:space="preserve">
<style type="text/css">
	.st0{fill:#FFFFFF;}
</style>
<g>
	<g>
		<path class="st0" d="M42.4,27.5l-6.2-10.4l5.6-1.6c0.6-0.2,0.9-0.8,0.8-1.3c-0.2-0.6-0.8-0.9-1.3-0.8l-7,1.9c0,0,0,0,0,0l-9.1,2.5
			v-12c0-0.6-0.5-1.1-1.1-1.1c-0.6,0-1.1,0.5-1.1,1.1v12.6l-9.7,2.7c0,0,0,0,0,0l-7,1.9c-0.6,0.2-0.9,0.8-0.8,1.3
			c0.1,0.5,0.6,0.8,1,0.8c0.1,0,0.2,0,0.3,0l4.4-1.2l-5.6,9.3c-0.1,0.2-0.2,0.4-0.2,0.6c0,4.4,3.6,8.1,8.1,8.1
			c4.4,0,8.1-3.6,8.1-8.1c0-0.2-0.1-0.4-0.2-0.6l-6.2-10.4l16.9-4.7l-5.6,9.3c-0.1,0.2-0.2,0.4-0.2,0.6c0,4.4,3.6,8.1,8.1,8.1
			c2.2,0,4.2-0.8,5.7-2.4c1.5-1.5,2.4-3.5,2.4-5.7C42.6,27.9,42.5,27.7,42.4,27.5z M13.6,39.8c-2.9,0-5.3-2.1-5.8-4.8h11.6
			C18.9,37.7,16.4,39.8,13.6,39.8z M18.6,32.8H8.5l5.1-8.4L18.6,32.8z M34.5,18.5l5.1,8.4H29.4L34.5,18.5z M34.5,33.9
			c-2.9,0-5.3-2.1-5.8-4.8h11.6C39.8,31.9,37.4,33.9,34.5,33.9z"/>
	</g>
</g>
</svg>
