<?xml version="1.0" encoding="utf-8"?>
<!-- Generator: Adobe Illustrator 21.1.0, SVG Export Plug-In . SVG Version: 6.00 Build 0)  -->
<svg version="1.1" id="Layer_1" xmlns="http://www.w3.org/2000/svg" xmlns:xlink="http://www.w3.org/1999/xlink" x="0px" y="0px"
	 viewBox="0 0 48 47" style="enable-background:new 0 0 48 47;" xml:space="preserve">
<style type="text/css">
	.st0{fill:#838382;}
	.st1{fill-rule:evenodd;clip-rule:evenodd;fill:#838382;}
</style>
<g>
	<g>
		<path class="st0" d="M31.2,19.8H13.8c-1,0-1.8,0.9-1.8,2v6c0,1.1,0.8,2,1.8,2h17.3c1,0,1.8-0.9,1.8-2v-6
			C32.9,20.7,32.1,19.8,31.2,19.8z M31.5,28.5h-18v-7.3h18V28.5z"/>
		<g>
			<polygon class="st0" points="21.9,13.7 15.4,21 14.5,20 14.6,19.8 20.1,13.7 			"/>
			<polygon class="st0" points="30.5,20 29.6,21 28.6,19.8 23.1,13.7 24.9,13.7 30.4,19.8 			"/>
			<polygon class="st0" points="22.5,13.1 21.9,13.7 20.1,13.7 21.6,12.1 			"/>
			<polygon class="st0" points="24.9,13.7 23.1,13.7 22.5,13.1 23.4,12.1 			"/>
		</g>
		<g>
			<path class="st1" d="M21.6,4.7h1.8c0.4,0,0.7,0.3,0.6,0.7L23.8,8c0,0.4-0.3,0.7-0.6,0.7h-1.3c-0.3,0-0.6-0.3-0.6-0.7L21,5.4
				C20.9,5,21.3,4.7,21.6,4.7L21.6,4.7z M21.3,6.3L22.1,5h0.4l-1.1,1.9L21.3,6.3L21.3,6.3z M23.1,5l0.3,0l-1.9,3.1l-0.1-0.5L23.1,5
				L23.1,5z M23.7,5.9L22,8.5l0.4,0l1.2-1.9L23.7,5.9L23.7,5.9z M23.5,7.8L23,8.5h0.3l0.2-0.2L23.5,7.8L23.5,7.8z M21.6,5l-0.4,0.5
				l0-0.2L21.5,5L21.6,5L21.6,5z"/>
			<path class="st0" d="M23.2,9.1V10c0,0.5-0.3,0.9-0.6,1.2c-0.1,0.1-0.4,0.3-0.2,0.6c0.4,0.6,1.1-0.1,1.6-0.2
				c0.3,1-0.4,1.6-1.2,1.7c-0.9,0.1-1.8-0.5-1.8-1.6c0-0.9,0.9-1.6,0.9-1.7V9.1H23.2L23.2,9.1z"/>
		</g>
		<g>
			<rect x="25" y="22.4" class="st0" width="1.6" height="4.8"/>
			<rect x="21.7" y="22.4" class="st0" width="1.6" height="4.8"/>
			<rect x="18.5" y="22.4" class="st0" width="1.6" height="4.8"/>
			<rect x="28.2" y="22.4" class="st0" width="1.6" height="4.8"/>
			<rect x="15.2" y="22.4" class="st0" width="1.6" height="4.8"/>
		</g>
	</g>
	<path class="st0" d="M36.9,36.1c-2.6-0.8-5.4-1.6-7.6-3.1c-0.9-0.6-1.8-1.3-3-1.4c-1.4-0.1-2.8,0.4-4.2,0.6
		c-1.4,0.2-2.8,0.2-4.2,0.4c-0.6,0.1-1.3,0.3-1.7,0.7c-0.6-0.3-1.5-0.4-2.2-0.6c-1.3-0.3-2.6-0.9-4-0.9c-1.2,0-2.8,0.6-2.4,2
		c0.3,1,1.6,1.3,2.5,1.6c1.5,0.5,2.9,1.3,4.2,2c0.6,0.3,1.3,0.7,1.9,1c0.6,0.3,1.1,0.8,1.8,0.9c1.3,0.2,2.9-0.2,4.3-0.3
		c2.5-0.1,5.5-0.2,7.6,1.2c0.6,0.4,1,0.7,1.7,0.5c0.6-0.2,1.2-0.3,1.7-0.5c1.2-0.4,2.3-1,3.1-1.9C36.9,37.9,38,36.4,36.9,36.1"/>
</g>
</svg>
