<?xml version="1.0" encoding="utf-8"?>
<!-- Generator: Adobe Illustrator 21.1.0, SVG Export Plug-In . SVG Version: 6.00 Build 0)  -->
<svg version="1.1" id="Layer_1" xmlns="http://www.w3.org/2000/svg" xmlns:xlink="http://www.w3.org/1999/xlink" x="0px" y="0px"
	 viewBox="0 0 48 47" style="enable-background:new 0 0 48 47;" xml:space="preserve">
<style type="text/css">
	.st0{fill:#838382;}
	.st1{fill-rule:evenodd;clip-rule:evenodd;fill:#838382;}
</style>
<g>
	<path class="st0" d="M36.4,27.5H13.3c-1.3,0-2.3,1.2-2.3,2.6v8.1c0,1.4,1.1,2.6,2.3,2.6h23.1c1.3,0,2.3-1.2,2.3-2.6v-8.1
		C38.7,28.7,37.7,27.5,36.4,27.5z M36.8,39.1h-24v-9.8h24V39.1z"/>
	<g>
		<polygon class="st0" points="24,19.4 15.3,29.1 14.2,27.7 14.3,27.5 21.7,19.4 		"/>
		<polygon class="st0" points="35.5,27.7 34.3,29.1 32.9,27.5 25.6,19.4 28,19.4 35.3,27.5 		"/>
		<polygon class="st0" points="24.8,18.5 24,19.4 21.7,19.4 23.6,17.2 		"/>
		<polygon class="st0" points="28,19.4 25.6,19.4 24.8,18.5 26,17.2 		"/>
	</g>
	<g>
		<path class="st1" d="M23.6,7.3H26c0.5,0,0.9,0.4,0.9,1l-0.3,3.5c-0.1,0.5-0.4,1-0.8,1H24c-0.5,0-0.8-0.4-0.8-1l-0.3-3.5
			C22.7,7.7,23.2,7.3,23.6,7.3L23.6,7.3z M23.2,9.5l1.1-1.8h0.5l-1.5,2.5L23.2,9.5L23.2,9.5z M25.6,7.7l0.5,0l-2.5,4.2l-0.1-0.7
			L25.6,7.7L25.6,7.7z M26.4,8.9l-2.3,3.5l0.6,0l1.6-2.6L26.4,8.9L26.4,8.9z M26.2,11.4l-0.6,1h0.3l0.2-0.3L26.2,11.4L26.2,11.4z
			 M23.6,7.7l-0.5,0.7l0-0.3l0.3-0.5L23.6,7.7L23.6,7.7z"/>
		<path class="st0" d="M25.7,13.2v1.2c0,0.7-0.4,1.2-0.8,1.6c-0.1,0.2-0.5,0.4-0.3,0.8c0.5,0.9,1.5-0.1,2.1-0.3
			c0.4,1.3-0.5,2.2-1.6,2.3c-1.2,0.1-2.4-0.6-2.4-2.2c0-1.3,1.2-2.2,1.2-2.2v-1.2H25.7L25.7,13.2z"/>
	</g>
	<g>
		<rect x="28.1" y="31" class="st0" width="2.1" height="6.4"/>
		<rect x="23.8" y="31" class="st0" width="2.1" height="6.4"/>
		<rect x="19.5" y="31" class="st0" width="2.1" height="6.4"/>
		<rect x="32.4" y="31" class="st0" width="2.1" height="6.4"/>
		<rect x="15.1" y="31" class="st0" width="2.1" height="6.4"/>
	</g>
</g>
</svg>
