<?xml version="1.0" encoding="utf-8"?>
<!-- Generator: Adobe Illustrator 21.1.0, SVG Export Plug-In . SVG Version: 6.00 Build 0)  -->
<svg version="1.1" id="Layer_1" xmlns="http://www.w3.org/2000/svg" xmlns:xlink="http://www.w3.org/1999/xlink" x="0px" y="0px"
	 viewBox="0 0 48 47" style="enable-background:new 0 0 48 47;" xml:space="preserve">
<style type="text/css">
	.st0{fill:#838382;}
	.st1{fill-rule:evenodd;clip-rule:evenodd;fill:#838382;}
</style>
<g>
	<g>
		<g>
			<path class="st0" d="M26.9,9.3c0-0.1,0-0.2,0-0.4c0-1.8-1.4-3.2-3.2-3.2c-1.8,0-3.2,1.4-3.2,3.2c0,0.1,0,0.2,0,0.4h-2v2.2
				c0,0.8,0.6,1.4,1.4,1.4h7.7c0.8,0,1.4-0.6,1.4-1.4V9.3H26.9z M23.7,6.9c0.6,0,1.2,0.5,1.2,1.2c0,0.6-0.5,1.2-1.2,1.2
				c-0.6,0-1.2-0.5-1.2-1.2C22.6,7.4,23.1,6.9,23.7,6.9z"/>
			<g>
				<path class="st0" d="M35.5,11.5c-0.2-1-1-1.7-2-1.7h-0.8v4.5L35.5,11.5z"/>
				<path class="st0" d="M32.7,26.5V35H14.8V9.8H14c-1.1,0-2,0.9-2,2v26c0,1.1,0.9,2,2,2h19.5c1.1,0,2-0.9,2-2V23.7L32.7,26.5z"/>
			</g>
		</g>
		<g>
			<path class="st0" d="M18.5,9.3v2.2c0,0.8,0.6,1.4,1.4,1.4h7.7c0.8,0,1.4-0.6,1.4-1.4V9.3h-2c0-0.1,0-0.2,0-0.4
				c0-1.8-1.4-3.2-3.2-3.2c-1.8,0-3.2,1.4-3.2,3.2c0,0.1,0,0.2,0,0.4H18.5z M24.9,8.1c0,0.6-0.5,1.2-1.2,1.2c-0.6,0-1.2-0.5-1.2-1.2
				c0-0.6,0.5-1.2,1.2-1.2C24.4,6.9,24.9,7.4,24.9,8.1z"/>
			<g>
				<path class="st0" d="M12,11.5c0.2-1,1-1.7,2-1.7h0.8v4.5L12,11.5z"/>
				<path class="st0" d="M14.8,26.5V35h17.9V9.8h0.8c1.1,0,2,0.9,2,2v26c0,1.1-0.9,2-2,2H14c-1.1,0-2-0.9-2-2V23.7L14.8,26.5z"/>
			</g>
		</g>
	</g>
	<g>
		<path class="st0" d="M29.9,31.6l-0.8,0.9l-0.2-0.3c-0.1-0.1-0.3-0.2-0.5-0.1c-0.1,0.1-0.2,0.3-0.1,0.5l0.5,0.6
			c0.1,0.1,0.1,0.1,0.2,0.1c0,0,0,0,0,0c0.1,0,0.2,0,0.2-0.1l1.1-1.2c0.1-0.1,0.1-0.3,0-0.5C30.3,31.5,30.1,31.5,29.9,31.6z"/>
		<rect x="17" y="31.9" class="st0" width="7.5" height="1"/>
		<path class="st0" d="M29.9,28.9l-0.8,0.9l-0.2-0.3c-0.1-0.1-0.3-0.2-0.5-0.1c-0.1,0.1-0.2,0.3-0.1,0.5l0.5,0.6
			c0.1,0.1,0.1,0.1,0.2,0.1c0,0,0,0,0,0c0.1,0,0.2,0,0.2-0.1l1.1-1.2c0.1-0.1,0.1-0.3,0-0.5C30.3,28.8,30.1,28.8,29.9,28.9z"/>
		<rect x="17" y="29.2" class="st0" width="7.5" height="1"/>
		<path class="st0" d="M29.9,26.2l-0.8,0.9l-0.2-0.3c-0.1-0.1-0.3-0.2-0.5-0.1c-0.1,0.1-0.2,0.3-0.1,0.5l0.5,0.6
			c0.1,0.1,0.1,0.1,0.2,0.1c0,0,0,0,0,0c0.1,0,0.2,0,0.2-0.1l1.1-1.2c0.1-0.1,0.1-0.3,0-0.5C30.3,26.1,30.1,26.1,29.9,26.2z"/>
		<rect x="17" y="26.6" class="st0" width="7.5" height="1"/>
	</g>
	<g>
		<path class="st0" d="M27.9,19.8h-8.3c-0.5,0-0.8,0.4-0.8,0.9v2.8c0,0.5,0.4,0.9,0.8,0.9h8.3c0.5,0,0.8-0.4,0.8-0.9v-2.8
			C28.7,20.2,28.3,19.8,27.9,19.8z M28,23.8h-8.6v-3.5H28V23.8z"/>
		<g>
			<polygon class="st0" points="23.5,16.9 20.3,20.3 19.9,19.8 20,19.8 22.6,16.9 			"/>
			<polygon class="st0" points="27.6,19.8 27.1,20.3 26.6,19.8 24,16.9 24.9,16.9 27.5,19.8 			"/>
			<polygon class="st0" points="23.7,16.6 23.5,16.9 22.6,16.9 23.3,16.1 			"/>
			<polygon class="st0" points="24.9,16.9 24,16.9 23.7,16.6 24.2,16.1 			"/>
		</g>
		<g>
			<path class="st1" d="M23.3,12.6h0.8c0.2,0,0.3,0.2,0.3,0.3l-0.1,1.2c0,0.2-0.1,0.3-0.3,0.3h-0.6c-0.2,0-0.3-0.2-0.3-0.3L23,13
				C23,12.8,23.1,12.6,23.3,12.6L23.3,12.6z M23.1,13.4l0.4-0.6h0.2l-0.5,0.9L23.1,13.4L23.1,13.4z M24,12.8l0.2,0l-0.9,1.5l0-0.2
				L24,12.8L24,12.8z M24.3,13.2l-0.8,1.2l0.2,0l0.6-0.9L24.3,13.2L24.3,13.2z M24.2,14.1L24,14.4h0.1l0.1-0.1L24.2,14.1L24.2,14.1z
				 M23.3,12.8L23.1,13l0-0.1L23.3,12.8L23.3,12.8L23.3,12.8z"/>
			<path class="st0" d="M24.1,14.7v0.4c0,0.2-0.1,0.4-0.3,0.6c-0.1,0.1-0.2,0.1-0.1,0.3c0.2,0.3,0.5,0,0.8-0.1
				c0.1,0.5-0.2,0.8-0.6,0.8c-0.4,0.1-0.9-0.2-0.8-0.8c0-0.4,0.4-0.8,0.4-0.8v-0.4H24.1L24.1,14.7z"/>
		</g>
		<g>
			<rect x="24.9" y="21" class="st0" width="0.7" height="2.3"/>
			<rect x="23.4" y="21" class="st0" width="0.7" height="2.3"/>
			<rect x="21.8" y="21" class="st0" width="0.7" height="2.3"/>
			<rect x="26.5" y="21" class="st0" width="0.7" height="2.3"/>
			<rect x="20.3" y="21" class="st0" width="0.7" height="2.3"/>
		</g>
	</g>
</g>
</svg>
