<?xml version="1.0" encoding="utf-8"?>
<!-- Generator: Adobe Illustrator 22.0.1, SVG Export Plug-In . SVG Version: 6.00 Build 0)  -->
<svg version="1.1" id="Layer_1" xmlns="http://www.w3.org/2000/svg" xmlns:xlink="http://www.w3.org/1999/xlink" x="0px" y="0px"
	 viewBox="0 0 48 47" style="enable-background:new 0 0 48 47;" xml:space="preserve">
<style type="text/css">
	.st0{fill:#838382;}
	.st1{fill-rule:evenodd;clip-rule:evenodd;fill:#838382;}
	.st2{fill:#FFFFFF;}
</style>
<g>
	<g>
		<polygon class="st0" points="24,35.2 14.9,35.2 14.9,11.8 25.7,11.8 31.6,17.6 36.3,17.6 36.3,16.8 27.3,7.9 11,7.9 11,39.1 
			27.7,39.1 24.1,35.2 		"/>
	</g>
</g>
<g>
	<rect x="18" y="21.8" class="st1" width="19.8" height="10.5"/>
	<g>
		<path class="st2" d="M25.5,28.8v1c-0.7,0.4-1.5,0.6-2.3,0.6c-0.7,0-1.3-0.1-1.8-0.4c-0.5-0.3-0.9-0.7-1.2-1.2s-0.4-1.1-0.4-1.6
			c0-0.9,0.3-1.7,1-2.4c0.7-0.6,1.5-1,2.5-1c0.7,0,1.4,0.2,2.3,0.5v1c-0.8-0.4-1.5-0.6-2.2-0.6c-0.7,0-1.4,0.2-1.8,0.7
			c-0.5,0.5-0.7,1.1-0.7,1.8c0,0.7,0.2,1.3,0.7,1.7c0.5,0.5,1.1,0.7,1.8,0.7C24,29.5,24.8,29.3,25.5,28.8z"/>
		<path class="st2" d="M28.3,27.6l-0.7-0.4c-0.4-0.3-0.8-0.5-0.9-0.8c-0.2-0.3-0.3-0.6-0.3-0.9c0-0.5,0.2-0.9,0.5-1.2
			c0.4-0.3,0.8-0.5,1.4-0.5c0.5,0,1,0.2,1.5,0.5v1c-0.5-0.4-1-0.7-1.5-0.7c-0.3,0-0.5,0.1-0.7,0.2c-0.2,0.1-0.3,0.3-0.3,0.5
			c0,0.2,0.1,0.4,0.2,0.5s0.4,0.3,0.7,0.5l0.7,0.4c0.8,0.5,1.2,1.1,1.2,1.8c0,0.5-0.2,0.9-0.5,1.3s-0.8,0.5-1.4,0.5
			c-0.6,0-1.2-0.2-1.7-0.6v-1.2c0.5,0.6,1.1,0.9,1.7,0.9c0.3,0,0.5-0.1,0.7-0.2c0.2-0.2,0.3-0.4,0.3-0.6
			C29.1,28.3,28.8,28,28.3,27.6z"/>
		<path class="st2" d="M35.1,23.9H36l-2.7,6.5h-0.2l-2.8-6.5h0.9l1.9,4.5L35.1,23.9z"/>
	</g>
</g>
</svg>
