<?xml version="1.0" encoding="utf-8"?>
<!-- Generator: Adobe Illustrator 22.0.1, SVG Export Plug-In . SVG Version: 6.00 Build 0)  -->
<svg version="1.1" id="Layer_1" xmlns="http://www.w3.org/2000/svg" xmlns:xlink="http://www.w3.org/1999/xlink" x="0px" y="0px"
	 viewBox="0 0 48 47" style="enable-background:new 0 0 48 47;" xml:space="preserve">
<style type="text/css">
	.st0{fill:#838382;}
</style>
<g>
	<g>
		<polygon class="st0" points="25,35.2 15.9,35.2 15.9,11.8 26.7,11.8 32.6,17.6 37.3,17.6 37.3,16.8 28.3,7.9 12,7.9 12,39.1 
			28.7,39.1 25.1,35.2 		"/>
	</g>
	<g>
		<path class="st0" d="M24,26.2c0.6-1.1,1.2-2.4,1.7-3.6l0.2-0.5c-0.7-2.5-1.1-4.6-0.7-5.9c0.1-0.3,0.5-0.6,0.9-0.6l0.3,0h0
			c0.6,0,0.9,0.7,0.9,1c0.1,0.5-0.2,1.3-0.2,1.3c0-0.3,0-0.9-0.2-1.3c-0.2-0.5-0.5-0.8-0.7-0.9c-0.1,0.1-0.2,0.2-0.2,0.5
			C26,16.6,26,17.1,26,17.4c0,0.9,0.2,2.1,0.5,3.3c0.1-0.2,0.1-0.4,0.2-0.5c0.1-0.3,0.5-2,0.5-2s-0.1,2.4-0.3,3.1
			c0,0.2-0.1,0.3-0.1,0.5c0.6,1.6,1.5,3,2.6,4.1c0.4,0.4,1,0.7,1.5,1c1.1-0.2,2.2-0.2,3-0.2c1.2,0,2,0.2,2.3,0.5
			c0.2,0.2,0.2,0.4,0.3,0.6c0,0.1,0,0.3,0,0.3c0-0.1,0-0.4-0.9-0.7c-0.7-0.2-2.1-0.2-3.7-0.1c1.9,0.9,3.7,1.4,4.3,1.1
			c0.1-0.1,0.3-0.3,0.3-0.3s-0.1,0.5-0.2,0.6c-0.1,0.1-0.3,0.3-0.5,0.3c-0.9,0.2-3.3-0.3-5.4-1.5c-2.3,0.3-4.9,1-7,1.7
			c-2,3.6-3.5,5.2-4.8,4.6l-0.5-0.2C18,33.3,18,33,18,32.8c0.1-0.7,1-1.8,2.8-2.8c0.2-0.1,1-0.6,1-0.6s-0.6,0.6-0.8,0.7
			c-1.4,1.2-2.5,2.6-2.4,3.2l0,0C19.9,33.2,21.7,30.8,24,26.2L24,26.2z M24.8,26.6L24.8,26.6c-0.4,0.7-0.8,1.4-1.1,2
			c1.9-0.8,4-1.3,6-1.7c-0.3-0.2-0.5-0.4-0.8-0.6c-1.1-0.9-1.9-2.1-2.5-3.3C26,24.1,25.5,25.2,24.8,26.6z"/>
	</g>
</g>
</svg>
