<?xml version="1.0" encoding="utf-8"?>
<!-- Generator: Adobe Illustrator 22.0.1, SVG Export Plug-In . SVG Version: 6.00 Build 0)  -->
<svg version="1.1" id="Layer_1" xmlns="http://www.w3.org/2000/svg" xmlns:xlink="http://www.w3.org/1999/xlink" x="0px" y="0px"
	 viewBox="0 0 48 47" style="enable-background:new 0 0 48 47;" xml:space="preserve">
<style type="text/css">
	.st0{fill:#838382;}
</style>
<g>
	<polygon class="st0" points="10.9,29.4 10.2,34.2 9.5,39 14.3,38.3 19.1,37.6 15,33.5 	"/>
	<polygon class="st0" points="20.4,33.5 19.1,32.1 31.4,19.8 28.7,17 16.3,29.4 15,28 27.3,15.6 25.9,14.3 12.2,28 20.4,36.2 
		34.2,22.5 32.8,21.1 	"/>
	<path class="st0" d="M38.4,15.7l-5.5-5.5c-0.8-0.8-2-0.8-2.7-0.1l-0.1,0.2l0,0L27.4,13l8.2,8.2l2.6-2.6l0,0l0.2-0.1
		C39.2,17.7,39.2,16.5,38.4,15.7z"/>
</g>
</svg>
