<?xml version="1.0" encoding="utf-8"?>
<!-- Generator: Adobe Illustrator 21.1.0, SVG Export Plug-In . SVG Version: 6.00 Build 0)  -->
<svg version="1.1" id="Layer_1" xmlns="http://www.w3.org/2000/svg" xmlns:xlink="http://www.w3.org/1999/xlink" x="0px" y="0px"
	 viewBox="0 0 48 47" style="enable-background:new 0 0 48 47;" xml:space="preserve">
<style type="text/css">
	.st0{fill:#838382;}
</style>
<g>
	<g>
		<g>
			<path class="st0" d="M29.3,12.4l-0.1-0.1l-2.8-2.9H10.2v30.8h25v-22L29.3,12.4z M14,13.3h10.8l0.8,0.8v5h5l0.8,0.8v16.5H14V13.3z
				"/>
		</g>
		<g>
			<g>
				<g>
					<polygon class="st0" points="24.4,22.1 15.6,22.1 15.6,21.1 23.4,21.1 					"/>
					<polygon class="st0" points="27.2,24.8 26.1,23.8 15.6,23.8 15.6,24.8 					"/>
					<polygon class="st0" points="29.8,27.6 29.8,27.5 28.9,26.5 15.5,26.5 15.5,27.6 					"/>
				</g>
				<g>
					<polygon class="st0" points="20.9,22.1 29.8,22.1 29.8,21.1 22,21.1 					"/>
					<polygon class="st0" points="18.2,24.8 29.8,24.8 29.8,23.8 19.2,23.8 					"/>
					<polygon class="st0" points="29.8,27.6 29.8,26.5 16.5,26.5 16.2,26.8 15.5,27.5 15.5,27.6 					"/>
				</g>
			</g>
			<rect x="15.5" y="18.6" class="st0" width="7.5" height="1"/>
			<rect x="15.5" y="16" class="st0" width="7.5" height="1"/>
		</g>
		<g>
			<path class="st0" d="M17.3,29.1h3.4v0.8h-2.5v1.8h2.4v0.8h-2.4v1.8h2.6V35h-3.4V29.1z"/>
			<path class="st0" d="M21.7,29.1h0.8v5.9h-0.8V29.1z"/>
			<path class="st0" d="M23.9,35.1v-5.9h1.5c0.6,0,1.1,0.1,1.4,0.4c0.4,0.3,0.5,0.7,0.5,1.2c0,0.3-0.1,0.6-0.3,0.9s-0.4,0.4-0.7,0.6
				c0.2,0.1,0.4,0.3,0.6,0.5s0.4,0.6,0.8,1.1c0.2,0.3,0.4,0.6,0.5,0.8l0.3,0.4h-1l-0.3-0.4c0,0,0,0-0.1-0.1l-0.2-0.2l-0.3-0.4
				l-0.3-0.5c-0.2-0.2-0.3-0.4-0.5-0.6c-0.1-0.1-0.3-0.2-0.4-0.3c-0.1-0.1-0.3-0.1-0.6-0.1h-0.2v2.6H23.9z M25,29.9h-0.3v1.9H25
				c0.4,0,0.7,0,0.9-0.1c0.2-0.1,0.3-0.2,0.4-0.3c0.1-0.1,0.1-0.3,0.1-0.5c0-0.2,0-0.4-0.1-0.5c-0.1-0.2-0.2-0.3-0.4-0.3
				C25.7,29.9,25.4,29.9,25,29.9z"/>
		</g>
	</g>
</g>
</svg>
