<?xml version="1.0" encoding="utf-8"?>
<!-- Generator: Adobe Illustrator 22.0.1, SVG Export Plug-In . SVG Version: 6.00 Build 0)  -->
<svg version="1.1" id="Layer_1" xmlns="http://www.w3.org/2000/svg" xmlns:xlink="http://www.w3.org/1999/xlink" x="0px" y="0px"
	 viewBox="0 0 48 47" style="enable-background:new 0 0 48 47;" xml:space="preserve">
<style type="text/css">
	.st0{fill-rule:evenodd;clip-rule:evenodd;fill:#838382;}
	.st1{fill:#838382;}
</style>
<g>
	<polygon class="st0" points="-292.7,55.1 -290.5,55.1 -287.3,51 -292.7,51 	"/>
	<g>
		<path class="st0" d="M-276.2,60.9c-0.1-0.2-0.4-0.3-0.7-0.3h-5.2l-1.4-1.4l-2.2-2.2c-0.2-0.2-0.4-0.3-0.7-0.3
			c-0.2,0-0.5,0.1-0.7,0.3c-0.1,0.2-0.3,0.4-0.3,0.7c0,0.2,0.1,0.5,0.3,0.7l4,4c0.1,0.1,0.2,0.1,0.3,0.2c0.1,0,0.2,0.1,0.4,0.1h5.6
			c0.3,0,0.5-0.1,0.7-0.3c0.2-0.2,0.3-0.4,0.3-0.7C-275.9,61.3-276,61.1-276.2,60.9z M-276.2,60.9c-0.1-0.2-0.4-0.3-0.7-0.3h-5.2
			l-1.4-1.4l-2.2-2.2c-0.2-0.2-0.4-0.3-0.7-0.3c-0.2,0-0.5,0.1-0.7,0.3c-0.1,0.2-0.3,0.4-0.3,0.7c0,0.2,0.1,0.5,0.3,0.7l4,4
			c0.1,0.1,0.2,0.1,0.3,0.2c0.1,0,0.2,0.1,0.4,0.1h5.6c0.3,0,0.5-0.1,0.7-0.3c0.2-0.2,0.3-0.4,0.3-0.7
			C-275.9,61.3-276,61.1-276.2,60.9z M-276.2,60.9c-0.1-0.2-0.4-0.3-0.7-0.3h-5.2l-1.4-1.4l-2.2-2.2c-0.2-0.2-0.4-0.3-0.7-0.3
			c-0.2,0-0.5,0.1-0.7,0.3c-0.1,0.2-0.3,0.4-0.3,0.7c0,0.2,0.1,0.5,0.3,0.7l4,4c0.1,0.1,0.2,0.1,0.3,0.2c0.1,0,0.2,0.1,0.4,0.1h5.6
			c0.3,0,0.5-0.1,0.7-0.3c0.2-0.2,0.3-0.4,0.3-0.7C-275.9,61.3-276,61.1-276.2,60.9z M-276.2,60.9c-0.1-0.2-0.4-0.3-0.7-0.3h-5.2
			l-1.4-1.4l-2.2-2.2c-0.2-0.2-0.4-0.3-0.7-0.3c-0.2,0-0.5,0.1-0.7,0.3c-0.1,0.2-0.3,0.4-0.3,0.7c0,0.2,0.1,0.5,0.3,0.7l4,4
			c0.1,0.1,0.2,0.1,0.3,0.2c0.1,0,0.2,0.1,0.4,0.1h5.6c0.3,0,0.5-0.1,0.7-0.3c0.2-0.2,0.3-0.4,0.3-0.7
			C-275.9,61.3-276,61.1-276.2,60.9z M-276.2,60.9c-0.1-0.2-0.4-0.3-0.7-0.3h-5.2l-1.4-1.4l-2.2-2.2c-0.2-0.2-0.4-0.3-0.7-0.3
			c-0.2,0-0.5,0.1-0.7,0.3c-0.1,0.2-0.3,0.4-0.3,0.7c0,0.2,0.1,0.5,0.3,0.7l4,4c0.1,0.1,0.2,0.1,0.3,0.2c0.1,0,0.2,0.1,0.4,0.1h5.6
			c0.3,0,0.5-0.1,0.7-0.3c0.2-0.2,0.3-0.4,0.3-0.7C-275.9,61.3-276,61.1-276.2,60.9z M-276.2,60.9c-0.1-0.2-0.4-0.3-0.7-0.3h-5.2
			l-1.4-1.4l-2.2-2.2c-0.2-0.2-0.4-0.3-0.7-0.3c-0.2,0-0.5,0.1-0.7,0.3c-0.1,0.2-0.3,0.4-0.3,0.7c0,0.2,0.1,0.5,0.3,0.7l4,4
			c0.1,0.1,0.2,0.1,0.3,0.2c0.1,0,0.2,0.1,0.4,0.1h5.6c0.3,0,0.5-0.1,0.7-0.3c0.2-0.2,0.3-0.4,0.3-0.7
			C-275.9,61.3-276,61.1-276.2,60.9z M-273.7,51.7c-0.4-0.4-0.7-0.7-1.2-1c-0.6-0.5-1.3-0.9-2-1.2c-1.4-0.7-3-1.1-4.7-1.1
			c-0.6,0-1.3,0.1-1.9,0.2c-2.3,0.4-4.4,1.5-6.1,3.1c-2,2-3.3,4.8-3.3,7.9c0,1.2,0.2,2.3,0.5,3.3c0.2,0.6,0.5,1.3,0.8,1.9
			c0.4,0.8,0.9,1.6,1.5,2.2c0.1,0.2,0.3,0.3,0.4,0.5c0.6,0.6,1.2,1.1,2,1.5c1.7,1.1,3.8,1.7,6,1.7c3.1,0,5.9-1.2,7.9-3.3
			c2-2,3.3-4.8,3.3-7.9C-270.4,56.5-271.7,53.7-273.7,51.7z M-275,66.2c-1.7,1.7-4,2.7-6.6,2.7c-0.6,0-1.3-0.1-1.9-0.2
			c-1.4-0.3-2.7-0.9-3.8-1.7c-0.4-0.2-0.7-0.5-1-0.8c-0.4-0.4-0.8-0.9-1.1-1.4c-0.4-0.6-0.7-1.2-1-1.9c-0.4-1-0.6-2.2-0.6-3.3
			c0-2.6,1-4.9,2.7-6.6c1.3-1.3,2.9-2.2,4.8-2.5c0.6-0.1,1.2-0.2,1.9-0.2c1.7,0,3.3,0.5,4.7,1.3c0.7,0.4,1.3,0.9,1.9,1.4
			c0.1,0.1,0.1,0.1,0.2,0.2c1.6,1.7,2.6,3.9,2.6,6.4C-272.3,62.2-273.3,64.5-275,66.2z M-276.9,60.7h-5.2l-1.4-1.4l-2.2-2.2
			c-0.2-0.2-0.4-0.3-0.7-0.3c-0.2,0-0.5,0.1-0.7,0.3c-0.1,0.2-0.3,0.4-0.3,0.7c0,0.2,0.1,0.5,0.3,0.7l4,4c0.1,0.1,0.2,0.1,0.3,0.2
			c0.1,0,0.2,0.1,0.4,0.1h5.6c0.3,0,0.5-0.1,0.7-0.3c0.2-0.2,0.3-0.4,0.3-0.7c0-0.3-0.1-0.5-0.3-0.7
			C-276.4,60.8-276.6,60.7-276.9,60.7z M-276.2,60.9c-0.1-0.2-0.4-0.3-0.7-0.3h-5.2l-1.4-1.4l-2.2-2.2c-0.2-0.2-0.4-0.3-0.7-0.3
			c-0.2,0-0.5,0.1-0.7,0.3c-0.1,0.2-0.3,0.4-0.3,0.7c0,0.2,0.1,0.5,0.3,0.7l4,4c0.1,0.1,0.2,0.1,0.3,0.2c0.1,0,0.2,0.1,0.4,0.1h5.6
			c0.3,0,0.5-0.1,0.7-0.3c0.2-0.2,0.3-0.4,0.3-0.7C-275.9,61.3-276,61.1-276.2,60.9z M-276.2,60.9c-0.1-0.2-0.4-0.3-0.7-0.3h-5.2
			l-1.4-1.4l-2.2-2.2c-0.2-0.2-0.4-0.3-0.7-0.3c-0.2,0-0.5,0.1-0.7,0.3c-0.1,0.2-0.3,0.4-0.3,0.7c0,0.2,0.1,0.5,0.3,0.7l4,4
			c0.1,0.1,0.2,0.1,0.3,0.2c0.1,0,0.2,0.1,0.4,0.1h5.6c0.3,0,0.5-0.1,0.7-0.3c0.2-0.2,0.3-0.4,0.3-0.7
			C-275.9,61.3-276,61.1-276.2,60.9z"/>
	</g>
</g>
<g>
	<g>
		<path class="st0" d="M32.2,28.4c0-0.3-0.1-0.6-0.3-0.8l-4.5-4.5l0-2.5l0-3.9c0-0.3-0.1-0.6-0.3-0.8c-0.2-0.2-0.5-0.3-0.8-0.4
			c-0.3,0-0.6,0.1-0.8,0.3C25.2,16,25,16.3,25,16.6l0,6.9c0,0.1,0,0.3,0.1,0.4c0.1,0.1,0.2,0.3,0.3,0.4l4.9,4.9
			c0.2,0.2,0.6,0.3,0.8,0.3c0.3,0,0.6-0.1,0.8-0.3C32.1,29,32.2,28.7,32.2,28.4z M36.4,12.7c-0.5-0.4-0.9-0.9-1.4-1.2
			c-0.8-0.6-1.6-1.1-2.5-1.5c-1.8-0.9-3.8-1.3-5.8-1.3c-0.8,0-1.6,0.1-2.3,0.2c-2.9,0.5-5.5,1.9-7.5,3.9c-2.5,2.5-4,6-4,9.8
			c0,1.4,0.2,2.8,0.6,4.1c0,0.1,0.1,0.3,0.1,0.4c0.2,0.6,0.5,1.2,0.8,1.8l1.4-2.5c-0.3-0.7-0.4-1.5-0.5-2.3c-0.1-0.5-0.1-1-0.1-1.5
			c0-3.2,1.3-6,3.4-8.2c1.6-1.6,3.6-2.7,5.9-3.2c0.7-0.2,1.5-0.2,2.3-0.2c2.1,0,4.1,0.6,5.8,1.6c0.8,0.5,1.6,1.1,2.3,1.8
			c0.1,0.1,0.1,0.1,0.2,0.2c2,2.1,3.2,4.9,3.2,8c0,3.2-1.3,6.1-3.4,8.2c-2.1,2.1-5,3.4-8.1,3.4h-0.1c-0.6,0-1.2,0-1.7-0.1l1.3,2.4
			c0.2,0,0.4,0,0.5,0c0.4,0,0.8,0,1.1,0c3.3-0.3,6.4-1.7,8.6-4c2.5-2.5,4.1-6,4.1-9.8S38.9,15.2,36.4,12.7z M17.2,29.2v3.1
			c0,0.2,0.1,0.3,0.2,0.5c0.2,0.1,0.3,0.3,0.5,0.4c0.1,0,0.2,0,0.3,0c0.5,0,0.9-0.4,0.9-1v-1.1c-0.2-0.2-0.4-0.4-0.6-0.6
			C18,30.2,17.6,29.8,17.2,29.2z"/>
	</g>
</g>
<g>
	<path class="st1" d="M18.2,26.1c-0.5,0.1-1,0.5-1,1v5.3c0,0.2,0.1,0.3,0.2,0.5c0.1,0.2,0.3,0.3,0.5,0.4c0.1,0,0.2,0,0.3,0
		c0.5,0,0.9-0.4,0.9-1V27C19.1,26.5,18.7,26.1,18.2,26.1z M18.2,34.3c-0.5,0-1,0.4-1,1c0,0.5,0.4,1,1,1c0.5,0,1-0.4,1-1
		C19.2,34.7,18.7,34.3,18.2,34.3z M18.2,34.3c-0.5,0-1,0.4-1,1c0,0.5,0.4,1,1,1c0.5,0,1-0.4,1-1C19.2,34.7,18.7,34.3,18.2,34.3z
		 M17.9,33.2c0.1,0,0.2,0,0.3,0c0.5,0,0.9-0.4,0.9-1V27c0-0.5-0.4-1-0.9-1c-0.5,0.1-1,0.5-1,1v5.3c0,0.2,0.1,0.3,0.2,0.5
		C17.5,33,17.7,33.2,17.9,33.2z M28.6,37.9l-0.9-1.6L26.5,34l-7.8-14.2c-0.2-0.2-0.3-0.4-0.6-0.4s-0.5,0.2-0.6,0.4L15.2,24l-1.6,3
		l-6,10.8c-0.2,0.2-0.1,0.5,0,0.7C7.7,38.8,8,39,8.2,39H28c0.3,0,0.5-0.2,0.7-0.4C28.8,38.4,28.8,38.1,28.6,37.9z M9.5,37.5l4.8-8.7
		l1.4-2.5l2.5-4.5l6.6,12l1.3,2.4l0.7,1.2H9.5z M18.2,34.3c-0.5,0-1,0.4-1,1c0,0.5,0.4,1,1,1c0.5,0,1-0.4,1-1
		C19.2,34.7,18.7,34.3,18.2,34.3z M17.9,33.2c0.1,0,0.2,0,0.3,0c0.5,0,0.9-0.4,0.9-1V27c0-0.5-0.4-1-0.9-1c-0.5,0.1-1,0.5-1,1v5.3
		c0,0.2,0.1,0.3,0.2,0.5C17.5,33,17.7,33.2,17.9,33.2z M18.2,34.3c-0.5,0-1,0.4-1,1c0,0.5,0.4,1,1,1c0.5,0,1-0.4,1-1
		C19.2,34.7,18.7,34.3,18.2,34.3z M18.2,26.1c-0.5,0.1-1,0.5-1,1v5.3c0,0.2,0.1,0.3,0.2,0.5c0.1,0.2,0.3,0.3,0.5,0.4
		c0.1,0,0.2,0,0.3,0c0.5,0,0.9-0.4,0.9-1V27C19.1,26.5,18.7,26.1,18.2,26.1z M18.2,26.1c-0.5,0.1-1,0.5-1,1v5.3
		c0,0.2,0.1,0.3,0.2,0.5c0.1,0.2,0.3,0.3,0.5,0.4c0.1,0,0.2,0,0.3,0c0.5,0,0.9-0.4,0.9-1V27C19.1,26.5,18.7,26.1,18.2,26.1z
		 M18.2,34.3c-0.5,0-1,0.4-1,1c0,0.5,0.4,1,1,1c0.5,0,1-0.4,1-1C19.2,34.7,18.7,34.3,18.2,34.3z"/>
</g>
</svg>
