<?xml version="1.0" encoding="utf-8"?>
<!-- Generator: Adobe Illustrator 21.1.0, SVG Export Plug-In . SVG Version: 6.00 Build 0)  -->
<svg version="1.1" id="Layer_1" xmlns="http://www.w3.org/2000/svg" xmlns:xlink="http://www.w3.org/1999/xlink" x="0px" y="0px"
	 viewBox="0 0 48 47" style="enable-background:new 0 0 48 47;" xml:space="preserve">
<style type="text/css">
	.st0{fill:#838382;}
</style>
<g>
	<g>
		<path class="st0" d="M31.8,8.9l-16-2.8l-0.6,3.5l-0.7,3.9h3.9l0.5-2.9l10.5,1.9h0l0.1,0.1l0.6,0.8l-0.9,4.9l4.9,0.9l0.7,0.9
			L32,36.3l-0.4-0.1v0.3H14.3V14.7l-3.8,21.7l22.4,3.9l2.2,0.4l0.1-0.4l0.3-1.5l3.5-19.7L31.8,8.9z"/>
	</g>
	<g>
		<path class="st0" d="M29.6,12.5l-0.1-0.1l-2.8-2.9H10.4v30.8h25v-22L29.6,12.5z M14.3,13.4H25l0.8,0.8v5h5l0.8,0.8v16.5H14.3V13.4
			z"/>
	</g>
	<g>
		<g>
			<g>
				<polygon class="st0" points="24.7,34 15.8,34 15.8,35.1 23.7,35.1 				"/>
				<polygon class="st0" points="27.4,31.3 26.4,32.3 15.8,32.3 15.8,31.3 				"/>
				<polygon class="st0" points="30.1,28.6 30.1,28.7 29.1,29.6 15.8,29.6 15.8,28.6 				"/>
			</g>
			<g>
				<polygon class="st0" points="21.2,34 30,34 30,35.1 22.2,35.1 				"/>
				<polygon class="st0" points="18.4,31.3 30,31.3 30,32.3 19.5,32.3 				"/>
				<polygon class="st0" points="30.1,28.6 30.1,29.6 16.8,29.6 16.5,29.4 15.8,28.7 15.8,28.6 				"/>
			</g>
		</g>
		<g>
			<g>
				<g>
					<polygon class="st0" points="24.7,21.5 15.8,21.5 15.8,20.5 23.7,20.5 					"/>
					<polygon class="st0" points="27.4,24.2 26.4,23.2 15.8,23.2 15.8,24.2 					"/>
					<polygon class="st0" points="30.1,26.9 30.1,26.8 29.1,25.9 15.8,25.9 15.8,26.9 					"/>
				</g>
				<g>
					<polygon class="st0" points="21.2,21.5 30,21.5 30,20.5 22.2,20.5 					"/>
					<polygon class="st0" points="18.4,24.2 30,24.2 30,23.2 19.5,23.2 					"/>
					<polygon class="st0" points="30.1,26.9 30.1,25.9 16.8,25.9 16.5,26.1 15.8,26.8 15.8,26.9 					"/>
				</g>
			</g>
			<rect x="15.8" y="17.9" class="st0" width="7.5" height="1"/>
			<rect x="15.8" y="15.4" class="st0" width="7.5" height="1"/>
		</g>
	</g>
</g>
</svg>
