<?xml version="1.0" encoding="utf-8"?>
<!-- Generator: Adobe Illustrator 21.1.0, SVG Export Plug-In . SVG Version: 6.00 Build 0)  -->
<svg version="1.1" id="Layer_1" xmlns="http://www.w3.org/2000/svg" xmlns:xlink="http://www.w3.org/1999/xlink" x="0px" y="0px"
	 viewBox="0 0 48 47" style="enable-background:new 0 0 48 47;" xml:space="preserve">
<style type="text/css">
	.st0{fill:#FFFFFF;}
</style>
<g>
	<g id="Funnel">
		<g>
			<path class="st0" d="M24.2,6.6c-3.7,0-15.8,0.3-15.8,4.7v3.2c0,0.2,0.1,0.5,0.2,0.7c2.4,5.1,6.5,9.4,11.4,12v9.9
				c0,0.3,0.1,0.5,0.2,0.7c0.8,1.5,2.3,2.4,4,2.4c1.7,0,3.2-0.9,4-2.4c0.1-0.2,0.2-0.5,0.2-0.7v-9.9c5-2.7,9-6.9,11.4-12
				c0.1-0.2,0.2-0.4,0.2-0.7v-3.2C40,6.9,27.9,6.6,24.2,6.6z M24.2,9.8c6.2,0,10.4,0.9,12,1.6c-1.7,0.7-5.8,1.6-12,1.6
				s-10.4-0.9-12-1.6C13.8,10.6,18,9.8,24.2,9.8z M26.1,24.8c-0.5,0.3-0.9,0.8-0.9,1.4v10.4c-0.5,0.6-1.6,0.6-2.1,0V26.3
				c0-0.6-0.3-1.2-0.9-1.4c-4.5-2.2-8.2-5.8-10.5-10.3c3.9,1.4,10,1.5,12.4,1.5c2.4,0,8.5-0.1,12.4-1.5C34.3,19,30.6,22.6,26.1,24.8
				z"/>
		</g>
	</g>
</g>
</svg>
