<?xml version="1.0" encoding="utf-8"?>
<!-- Generator: Adobe Illustrator 22.0.1, SVG Export Plug-In . SVG Version: 6.00 Build 0)  -->
<svg version="1.1" id="Layer_1" xmlns="http://www.w3.org/2000/svg" xmlns:xlink="http://www.w3.org/1999/xlink" x="0px" y="0px"
	 viewBox="0 0 48 47" style="enable-background:new 0 0 48 47;" xml:space="preserve">
<style type="text/css">
	.st0{fill:#838382;}
</style>
<g>
	<g>
		<g>
			<path class="st0" d="M6.1,19.5l2.1,5.6c0.3,0.7,0.7,1.2,1.3,1.3l0,0c0.7,0.1,1.3,0,1.8-0.4l4.4-4c0.7-0.6,0.7-1.6,0.1-2.4
				c-0.6-0.7-1.6-0.7-2.4-0.3c2.1-5.3,7.8-8.6,13.6-7.1c6.2,1.6,9.9,7.8,8.4,14c-1.6,6.2-7.8,9.9-14,8.4c-1.2-0.3-2.5,0.4-2.8,1.6
				c-0.3,1.2,0.4,2.4,1.6,2.7c8.6,2.2,17.3-3.1,19.5-11.7C41.8,18.7,36.6,10,28.1,8c-8.3-2.1-16.5,2.5-19.2,10.5l0,0
				c-0.3-0.6-0.7-0.9-1.2-1c-0.3-0.1-0.7-0.1-1,0C6.2,17.5,5.8,18.6,6.1,19.5L6.1,19.5z"/>
		</g>
	</g>
	<g>
		<path class="st0" d="M24.5,26.8c0,0.4-0.4,0.7-1.2,0.7h-0.4c-0.6,0-1.2-0.3-1.2-0.7v-9.3c0-0.4,0.4-0.7,1.2-0.7h0.4
			c0.6,0,1.2,0.3,1.2,0.7V26.8z"/>
		<g>
			<path class="st0" d="M32.5,26.4c0,0.6-0.3,1.2-0.7,1.2h-9.3c-0.4,0-0.7-0.4-0.7-1.2V26c0-0.6,0.3-1.2,0.7-1.2h9.3
				c0.4,0,0.7,0.4,0.7,1.2C32.5,26,32.5,26.4,32.5,26.4z"/>
		</g>
	</g>
</g>
</svg>
