<?xml version="1.0" encoding="utf-8"?>
<!-- Generator: Adobe Illustrator 21.1.0, SVG Export Plug-In . SVG Version: 6.00 Build 0)  -->
<svg version="1.1" id="Layer_1" xmlns="http://www.w3.org/2000/svg" xmlns:xlink="http://www.w3.org/1999/xlink" x="0px" y="0px"
	 viewBox="0 0 48 47" style="enable-background:new 0 0 48 47;" xml:space="preserve">
<style type="text/css">
	.st0{fill-rule:evenodd;clip-rule:evenodd;fill:#838382;}
	.st1{fill:#838382;}
</style>
<g>
	<path class="st0" d="M34.1,11L33.3,9l-0.4-1l-1,0.4L10.3,18H7.7v8.2h2.8v6.7H14v-6.7h1.6v-2.4l16.5-10.6v4h1v-4.6l0.6-0.4l0.7-0.5
		L34.1,11z M15.5,21.3v-2.9l1.8,1.7L15.5,21.3z M17.5,18.8l-1.2-1.1l1.3-0.6L17.5,18.8z M18.6,19.4l0.1-2.1l1.7,1L18.6,19.4z
		 M21.2,17.5l-1.9-1.1l2-0.9L21.2,17.5z M22.3,17l0.1-1.7l1.5,0.8L22.3,17z M25.2,15.1l-0.4,0.3l-1.5-0.8l2.3-1L25.2,15.1z
		 M26.6,14.3l0.2-0.9l0.5,0.4L26.6,14.3z M28.3,13.2c-0.2-0.2-0.4-0.3-0.6-0.5l1.6-0.7c0,0.2,0.1,0.3,0.1,0.5L28.3,13.2z M30,12.1
		c0-0.2,0.1-0.3,0.1-0.5l1.7-0.7l0,0.1L30,12.1z"/>
	<g>
		<path class="st1" d="M39.7,30.9H25.1c-0.8,0-1.5,0.7-1.5,1.6v5.1c0,0.9,0.7,1.6,1.5,1.6h14.6c0.8,0,1.5-0.7,1.5-1.6v-5.1
			C41.2,31.7,40.5,30.9,39.7,30.9z M40,38.2H24.9V32H40V38.2z"/>
		<g>
			<polygon class="st1" points="31.9,25.8 26.4,31.9 25.7,31.1 25.8,30.9 30.4,25.8 			"/>
			<polygon class="st1" points="39.2,31.1 38.4,31.9 37.5,30.9 32.9,25.8 34.4,25.8 39,30.9 			"/>
			<polygon class="st1" points="32.4,25.2 31.9,25.8 30.4,25.8 31.7,24.4 			"/>
			<polygon class="st1" points="34.4,25.8 32.9,25.8 32.4,25.2 33.2,24.4 			"/>
		</g>
		<g>
			<path class="st0" d="M31.7,18.1h1.5c0.3,0,0.6,0.3,0.5,0.6L33.5,21c0,0.3-0.2,0.6-0.5,0.6h-1.1c-0.3,0-0.5-0.3-0.5-0.6l-0.2-2.2
				C31.1,18.4,31.4,18.1,31.7,18.1L31.7,18.1z M31.4,19.6l0.7-1.1h0.3L31.4,20L31.4,19.6L31.4,19.6z M32.9,18.4l0.3,0l-1.6,2.6
				l-0.1-0.4L32.9,18.4L32.9,18.4z M33.4,19.2L32,21.4l0.4,0l1-1.6L33.4,19.2L33.4,19.2z M33.3,20.8l-0.4,0.6h0.2l0.1-0.2L33.3,20.8
				L33.3,20.8z M31.7,18.4l-0.3,0.5l0-0.2l0.2-0.3L31.7,18.4L31.7,18.4z"/>
			<path class="st1" d="M33,21.9v0.8c0,0.4-0.2,0.7-0.5,1c-0.1,0.1-0.3,0.3-0.2,0.5c0.3,0.5,1-0.1,1.3-0.2c0.2,0.8-0.3,1.4-1,1.4
				c-0.8,0.1-1.5-0.4-1.5-1.4c0-0.8,0.7-1.4,0.7-1.4v-0.8H33L33,21.9z"/>
		</g>
		<g>
			<rect x="34.5" y="33.1" class="st1" width="1.3" height="4.1"/>
			<rect x="31.8" y="33.1" class="st1" width="1.3" height="4.1"/>
			<rect x="29" y="33.1" class="st1" width="1.3" height="4.1"/>
			<rect x="37.2" y="33.1" class="st1" width="1.3" height="4.1"/>
			<rect x="26.3" y="33.1" class="st1" width="1.3" height="4.1"/>
		</g>
	</g>
	<rect x="9.8" y="25.7" class="st0" width="4.2" height="15.4"/>
</g>
</svg>
