<?xml version="1.0" encoding="utf-8"?>
<!-- Generator: Adobe Illustrator 21.1.0, SVG Export Plug-In . SVG Version: 6.00 Build 0)  -->
<svg version="1.1" id="Layer_1" xmlns="http://www.w3.org/2000/svg" xmlns:xlink="http://www.w3.org/1999/xlink" x="0px" y="0px"
	 viewBox="0 0 48 47" style="enable-background:new 0 0 48 47;" xml:space="preserve">
<style type="text/css">
	.st0{fill:#838382;}
</style>
<g>
	<g>
		<g>
			<path class="st0" d="M27.1,9.8c0-0.1,0-0.2,0-0.4c0-1.8-1.4-3.2-3.2-3.2c-1.8,0-3.2,1.4-3.2,3.2c0,0.1,0,0.2,0,0.4h-2V12
				c0,0.8,0.6,1.4,1.4,1.4h7.7c0.8,0,1.4-0.6,1.4-1.4V9.8H27.1z M23.9,7.4c0.6,0,1.2,0.5,1.2,1.2c0,0.6-0.5,1.2-1.2,1.2
				c-0.6,0-1.2-0.5-1.2-1.2C22.7,8,23.2,7.4,23.9,7.4z"/>
			<g>
				<path class="st0" d="M35.7,12c-0.2-1-1-1.7-2-1.7h-0.8v4.5L35.7,12z"/>
				<path class="st0" d="M32.8,27v8.5H15V10.3h-0.8c-1.1,0-2,0.9-2,2v26c0,1.1,0.9,2,2,2h19.5c1.1,0,2-0.9,2-2V24.2L32.8,27z"/>
			</g>
			<polygon class="st0" points="25.6,21.9 16.8,21.9 16.8,22.9 24.6,22.9 			"/>
			<polygon class="st0" points="28.4,19.2 16.8,19.2 16.8,20.2 27.3,20.2 			"/>
			<polygon class="st0" points="31,16.6 31,16.5 16.8,16.5 16.8,17.5 30.1,17.5 			"/>
		</g>
		<g>
			<path class="st0" d="M18.7,9.8V12c0,0.8,0.6,1.4,1.4,1.4h7.7c0.8,0,1.4-0.6,1.4-1.4V9.8h-2c0-0.1,0-0.2,0-0.4
				c0-1.8-1.4-3.2-3.2-3.2c-1.8,0-3.2,1.4-3.2,3.2c0,0.1,0,0.2,0,0.4H18.7z M25.1,8.6c0,0.6-0.5,1.2-1.2,1.2c-0.6,0-1.2-0.5-1.2-1.2
				c0-0.6,0.5-1.2,1.2-1.2C24.5,7.4,25.1,8,25.1,8.6z"/>
			<g>
				<path class="st0" d="M12.1,12c0.2-1,1-1.7,2-1.7H15v4.5L12.1,12z"/>
				<path class="st0" d="M15,27v8.5h17.9V10.3h0.8c1.1,0,2,0.9,2,2v26c0,1.1-0.9,2-2,2H14.1c-1.1,0-2-0.9-2-2V24.2L15,27z"/>
			</g>
			<polygon class="st0" points="22.1,21.9 31,21.9 31,22.9 23.2,22.9 			"/>
			<polygon class="st0" points="19.4,19.2 31,19.2 31,20.2 20.4,20.2 			"/>
			<polygon class="st0" points="16.8,16.6 16.8,16.5 31,16.5 31,17.5 17.7,17.5 			"/>
		</g>
	</g>
	<path class="st0" d="M30,31.5l-1,1l-0.3-0.4c-0.1-0.2-0.4-0.2-0.5-0.1c-0.2,0.1-0.2,0.4-0.1,0.5l0.5,0.7c0.1,0.1,0.2,0.2,0.3,0.2
		c0,0,0,0,0,0c0.1,0,0.2,0,0.3-0.1l1.3-1.4c0.1-0.2,0.1-0.4,0-0.6C30.4,31.4,30.2,31.4,30,31.5z"/>
	<rect x="16.9" y="24.5" class="st0" width="7.5" height="1"/>
	<rect x="16.9" y="27" class="st0" width="7.5" height="1"/>
</g>
</svg>
