<?xml version="1.0" encoding="utf-8"?>
<!-- Generator: Adobe Illustrator 22.0.1, SVG Export Plug-In . SVG Version: 6.00 Build 0)  -->
<svg version="1.1" id="Layer_1" xmlns="http://www.w3.org/2000/svg" xmlns:xlink="http://www.w3.org/1999/xlink" x="0px" y="0px"
	 viewBox="0 0 40.3 42" style="enable-background:new 0 0 40.3 42;" xml:space="preserve">
<style type="text/css">
	.st0{fill:#FFFFFF;}
</style>
<g>
	<path class="st0" d="M30.4,26.8v-7.6c0-5.4-3.4-9.8-7.9-11c0-1.4-1.1-2.5-2.4-2.5c-1.3,0-2.3,1.1-2.4,2.5c-4.5,1.2-7.9,5.7-7.9,11
		v7.6c-1.7,0-3.1,1.5-3.1,3.4v2.4h26.8v-2.4C33.5,28.4,32.2,26.8,30.4,26.8z"/>
	<path class="st0" d="M20.2,36.3c1.3,0,2.5-1,2.8-2.4h-5.7C17.7,35.3,18.8,36.3,20.2,36.3z"/>
</g>
</svg>
