<?xml version="1.0" encoding="utf-8"?>
<!-- Generator: Adobe Illustrator 22.0.1, SVG Export Plug-In . SVG Version: 6.00 Build 0)  -->
<svg version="1.1" id="Layer_1" xmlns="http://www.w3.org/2000/svg" xmlns:xlink="http://www.w3.org/1999/xlink" x="0px" y="0px"
	 viewBox="0 0 48 47" style="enable-background:new 0 0 48 47;" xml:space="preserve">
<style type="text/css">
	.st0{fill:#DBDBDB;}
	.st1{fill:#838382;}
</style>
<g>
	<path class="st0" d="M23.8,5.3c-10.5,0-18.9,8.4-18.9,18.8c0,10.4,8.4,18.9,18.9,18.8c10.4,0,18.8-8.4,18.8-18.8
		C42.6,13.7,34.2,5.3,23.8,5.3z M23.8,38c-7.7,0-13.9-6.2-13.9-13.9c-0.1-7.6,6.2-13.9,13.9-13.9s13.9,6.2,13.9,13.9
		S31.5,38,23.8,38z"/>
	<path class="st1" d="M23.5,42.7v-4.4c-7.7-0.2-13.9-6.4-13.9-14.2c0-7.7,6.2-14,13.9-14.2V5.6C13.4,5.7,5.2,14,5.2,24.1
		C5.2,34.3,13.4,42.6,23.5,42.7L23.5,42.7z"/>
	<g>
		<path class="st1" d="M27.4,24.4c0.6,0,0.8-0.2,0.8-0.7v-0.6c0-0.4-0.2-0.7-0.8-0.7c-0.6,0-0.8,0.2-0.8,0.7v0.6
			C26.6,24.1,26.8,24.4,27.4,24.4L27.4,24.4z M27.6,26h0.5l1.6-3.5h-0.5L27.6,26z M27.7,23.6c0,0.2-0.1,0.2-0.3,0.2
			c-0.2,0-0.2-0.1-0.2-0.2v-0.4c0-0.2,0.1-0.3,0.2-0.3c0.2,0,0.3,0.1,0.3,0.3V23.6z M29.9,26.1c0.6,0,0.8-0.3,0.8-0.7v-0.6
			c0-0.4-0.2-0.7-0.8-0.7c-0.6,0-0.8,0.2-0.8,0.7v0.6C29.1,25.8,29.3,26.1,29.9,26.1L29.9,26.1z M30.2,25.3c0,0.2-0.1,0.2-0.3,0.2
			c-0.2,0-0.3-0.1-0.3-0.2v-0.4c0-0.2,0.1-0.3,0.3-0.3c0.2,0,0.3,0.1,0.3,0.3V25.3z"/>
		<path class="st1" d="M18.2,27.5c1.7,0,2.3-0.7,2.3-1.9v-0.2c0-1.1-0.5-1.8-2.1-1.8H18l0.1-1.1h2.2l0.1-1.1H17l-0.3,3.4h1.5
			c0.6,0,1,0.2,1,0.7v0.2c0,0.5-0.3,0.7-1,0.7c-0.6,0-1.2-0.1-1.6-0.2l-0.2,1.1C16.9,27.5,17.6,27.5,18.2,27.5L18.2,27.5z
			 M23.5,27.5c1.6,0,2.1-0.7,2.1-1.8v-2.6c0-1.2-0.6-1.8-2.1-1.8c-1.6,0-2.2,0.7-2.2,1.8v2.6C21.3,26.9,21.9,27.5,23.5,27.5
			L23.5,27.5z M24.4,25.6c0,0.5-0.3,0.8-0.9,0.8c-0.7,0-0.9-0.3-0.9-0.8v-2.4c0-0.6,0.3-0.8,0.9-0.8s0.9,0.3,0.9,0.8V25.6z"/>
	</g>
</g>
</svg>
