<?xml version="1.0" encoding="utf-8"?>
<!-- Generator: Adobe Illustrator 22.0.1, SVG Export Plug-In . SVG Version: 6.00 Build 0)  -->
<svg version="1.1" id="Layer_1" xmlns="http://www.w3.org/2000/svg" xmlns:xlink="http://www.w3.org/1999/xlink" x="0px" y="0px"
	 viewBox="0 0 48 47" style="enable-background:new 0 0 48 47;" xml:space="preserve">
<style type="text/css">
	.st0{fill:#DBDBDB;}
	.st1{fill:#838382;}
</style>
<g>
	<path class="st0" d="M24.8,5.3c-10.5,0-18.9,8.4-18.9,18.8c0,10.4,8.4,18.9,18.9,18.8c10.4,0,18.8-8.4,18.8-18.8
		C43.6,13.7,35.2,5.3,24.8,5.3z M24.8,38c-7.7,0-13.9-6.2-13.9-13.9c-0.1-7.6,6.2-13.9,13.9-13.9s13.9,6.2,13.9,13.9
		S32.5,38,24.8,38z"/>
	<path class="st1" d="M24.5,42.7v-4.4c-7.6-0.2-13.8-6.3-13.9-13.9H6.2C6.3,34.5,14.4,42.5,24.5,42.7L24.5,42.7z"/>
	<g>
		<path class="st1" d="M28.5,24.2c0.6,0,0.8-0.2,0.8-0.7V23c0-0.4-0.2-0.7-0.8-0.7c-0.6,0-0.8,0.2-0.8,0.7v0.6
			C27.7,24,27.9,24.2,28.5,24.2L28.5,24.2z M28.7,25.8h0.5l1.6-3.5h-0.5L28.7,25.8z M28.8,23.5c0,0.2-0.1,0.2-0.3,0.2
			c-0.2,0-0.2-0.1-0.2-0.2v-0.4c0-0.2,0.1-0.3,0.2-0.3c0.2,0,0.3,0.1,0.3,0.3V23.5z M31,25.9c0.6,0,0.8-0.3,0.8-0.7v-0.6
			c0-0.4-0.2-0.7-0.8-0.7c-0.6,0-0.8,0.2-0.8,0.7v0.6C30.2,25.7,30.4,25.9,31,25.9L31,25.9z M31.3,25.1c0,0.2-0.1,0.2-0.3,0.2
			c-0.2,0-0.3-0.1-0.3-0.2v-0.4c0-0.2,0.1-0.3,0.3-0.3c0.2,0,0.3,0.1,0.3,0.3V25.1z"/>
		<path class="st1" d="M17.3,27.1h4.3V26h-3.1v-0.2c0-1.3,2.9-1.1,2.9-3v-0.3c0-1-0.6-1.6-2.4-1.6c-0.6,0-1.3,0.1-1.7,0.2l0.2,1.1
			c0.4-0.1,1-0.2,1.5-0.2c0.9,0,1.1,0.1,1.1,0.6v0.1c0,0.8-2.9,1-2.9,3.1v1.3H17.3z M24.2,27.2c1.7,0,2.2-0.7,2.2-1.9v-0.2
			c0-1.1-0.5-1.8-2.1-1.8H24l0.1-1.1h2.2l0.1-1.1H23l-0.3,3.4h1.6c0.6,0,1,0.2,1,0.7v0.2c0,0.5-0.3,0.7-1,0.7
			c-0.6,0-1.2-0.1-1.6-0.2L22.5,27C22.8,27.2,23.5,27.2,24.2,27.2L24.2,27.2z"/>
	</g>
</g>
</svg>
