<?xml version="1.0" encoding="utf-8"?>
<!-- Generator: Adobe Illustrator 22.0.1, SVG Export Plug-In . SVG Version: 6.00 Build 0)  -->
<svg version="1.1" id="Layer_1" xmlns="http://www.w3.org/2000/svg" xmlns:xlink="http://www.w3.org/1999/xlink" x="0px" y="0px"
	 viewBox="0 0 48 47" style="enable-background:new 0 0 48 47;" xml:space="preserve">
<style type="text/css">
	.st0{fill:#DBDBDB;}
	.st1{fill:#838382;}
</style>
<g>
	<path class="st0" d="M23.8,5.3c-10.5,0-18.9,8.4-18.9,18.8c0,10.4,8.4,18.9,18.9,18.8c10.4,0,18.8-8.4,18.8-18.8
		C42.6,13.7,34.2,5.3,23.8,5.3z M23.8,38c-7.7,0-13.9-6.2-13.9-13.9c-0.1-7.6,6.2-13.9,13.9-13.9s13.9,6.2,13.9,13.9
		S31.5,38,23.8,38z"/>
	<path class="st1" d="M23.8,5.6c-10.3,0-18.5,8.3-18.5,18.6c0,10.2,8.3,18.5,18.5,18.5s18.5-8.3,18.5-18.5
		C42.3,13.9,34,5.6,23.8,5.6L23.8,5.6z M23.8,10C31.6,10,38,16.3,38,24.2s-6.3,14.2-14.2,14.2c-7.8,0-14.2-6.3-14.2-14.2
		S15.9,10,23.8,10L23.8,10z"/>
	<g>
		<path class="st1" d="M29.6,24.5c0.6,0,0.8-0.2,0.8-0.7v-0.6c0-0.4-0.2-0.7-0.8-0.7c-0.6,0-0.8,0.2-0.8,0.7v0.6
			C28.8,24.3,29,24.5,29.6,24.5L29.6,24.5z M29.8,26.1h0.5l1.6-3.5h-0.5L29.8,26.1z M29.9,23.7c0,0.2-0.1,0.2-0.3,0.2
			c-0.2,0-0.2-0.1-0.2-0.2v-0.4c0-0.2,0.1-0.3,0.2-0.3c0.2,0,0.3,0.1,0.3,0.3V23.7z M32.1,26.2c0.6,0,0.8-0.3,0.8-0.7v-0.6
			c0-0.4-0.2-0.7-0.8-0.7c-0.6,0-0.8,0.2-0.8,0.7v0.6C31.3,25.9,31.5,26.2,32.1,26.2L32.1,26.2z M32.4,25.4c0,0.2-0.1,0.2-0.3,0.2
			s-0.3-0.1-0.3-0.2V25c0-0.2,0.1-0.3,0.3-0.3c0.2,0,0.3,0.1,0.3,0.3V25.4z"/>
		<path class="st1" d="M17.8,27.3v-1.1h-0.9v-4.9h-1.3l-1.4,1l0.8,0.9l0.6-0.5v3.5h-0.9v1.1H17.8z M20.6,27.5c1.6,0,2.1-0.7,2.1-1.8
			V23c0-1.2-0.6-1.8-2.1-1.8c-1.6,0-2.2,0.7-2.2,1.8v2.6C18.4,26.8,19,27.5,20.6,27.5L20.6,27.5z M21.5,25.5c0,0.5-0.3,0.8-0.9,0.8
			c-0.7,0-0.9-0.3-0.9-0.8v-2.4c0-0.6,0.3-0.8,0.9-0.8s0.9,0.3,0.9,0.8V25.5z M25.7,27.5c1.6,0,2.1-0.7,2.1-1.8V23
			c0-1.2-0.6-1.8-2.1-1.8c-1.6,0-2.2,0.7-2.2,1.8v2.6C23.6,26.8,24.2,27.5,25.7,27.5L25.7,27.5z M26.6,25.5c0,0.5-0.3,0.8-0.9,0.8
			c-0.7,0-0.9-0.3-0.9-0.8v-2.4c0-0.6,0.3-0.8,0.9-0.8s0.9,0.3,0.9,0.8V25.5z"/>
	</g>
</g>
</svg>
