<?xml version="1.0" encoding="utf-8"?>
<!-- Generator: Adobe Illustrator 22.0.1, SVG Export Plug-In . SVG Version: 6.00 Build 0)  -->
<svg version="1.1" id="Layer_1" xmlns="http://www.w3.org/2000/svg" xmlns:xlink="http://www.w3.org/1999/xlink" x="0px" y="0px"
	 viewBox="0 0 48 47" style="enable-background:new 0 0 48 47;" xml:space="preserve">
<style type="text/css">
	.st0{fill-rule:evenodd;clip-rule:evenodd;fill:#838382;}
</style>
<g>
	<path class="st0" d="M20.5,24.7L20.5,24.7l-0.1-0.5l-0.1-0.9l0-0.1l0-0.3l-0.1-1.6l0-0.4l0-0.1l0-0.2l0-0.3v-0.1l-0.5-4.9l0-0.1
		H6.5l0,0.1L5.1,37.7h16.6L20.5,24.7z M8.2,33.4l0.9-13.9l0-0.1h8.1l0,0.1l0.1,1.2l0,0.4l0,0.2l0,0.1l0,0.4l0.1,1.6l0,0.4l0.1,1
		l0,0.4l0,0.1l0.8,8.3H8.2z"/>
	<g>
		<g>
			<path class="st0" d="M18.9,24.5l-0.5-2.9l-0.1-0.4l-0.9,0.2l0,0.4l0.1,1.6l0,0.4l0.1,1l0,0.4l1-0.2c0.1,0,0.1,0,0.2-0.1
				L18.9,24.5z"/>
			<path class="st0" d="M31.2,22.8c-0.1,0-0.2,0.1-0.2,0.1l-1.5,0.3l-0.6-3.7l1.8-0.3L31.2,22.8z M28.2,23.3l-1.8,0.3l-0.6-3.7
				l1.7-0.3L28.2,23.3z M25.2,23.8l-1.8,0.3l-0.6-3.7l1.7-0.3L25.2,23.8z M22.1,24.3l-1.7,0.3L19.8,21c0.1,0,0.2,0,0.2-0.1l1.5-0.3
				L22.1,24.3z"/>
			<path class="st0" d="M43.4,20.7c-0.1,0-0.2,0.1-0.2,0.1L41.6,21L41,17.4l1.8-0.3L43.4,20.7z M40.4,21.2l-1.8,0.3L38,17.9l1.7-0.3
				L40.4,21.2z M37.4,21.7L35.6,22L35,18.4l1.7-0.3L37.4,21.7z M34.3,22.2l-1.7,0.3L32,18.9c0.1,0,0.2,0,0.2-0.1l1.5-0.3L34.3,22.2z
				"/>
		</g>
		<path class="st0" d="M43.2,19.5L43.2,19.5l0-0.1l-0.4-2.3v0l0-0.1l-22.6,3.8l-2.7,0.5l0,0.1l0,0.4l1-0.2l1.4-0.2h0l0.3-0.1
			l1.4-0.2h0l1.2-0.2h0l1.7-0.3h0l1.3-0.2h0l1.7-0.3h0l1.2-0.2h0l1.8-0.3l1.4-0.2l1.8-0.3l1.3-0.2l1.7-0.3h0l1.3-0.2l1.7-0.3
			l1.3-0.2h0l1.1-0.2l0.5,2.9l-1.2,0.2l-1.3,0.2h0l-1.7,0.3h0l-1.2,0.2l-1.8,0.3h0l-1.3,0.2l-1.7,0.3h0l-1.4,0.2h0l-1.7,0.3h0
			l-1.3,0.2l-1.7,0.3h0l-1.2,0.2l-1.8,0.3h0L22.1,24h0l-1.6,0.3l-0.1,0l-1.4,0.3l-1.2,0.2l0,0.4l0,0.1l2.7-0.5l22.9-3.9L43.2,19.5z"
			/>
	</g>
</g>
</svg>
