<?xml version="1.0" encoding="utf-8"?>
<!-- Generator: Adobe Illustrator 21.1.0, SVG Export Plug-In . SVG Version: 6.00 Build 0)  -->
<svg version="1.1" id="Layer_1" xmlns="http://www.w3.org/2000/svg" xmlns:xlink="http://www.w3.org/1999/xlink" x="0px" y="0px"
	 viewBox="0 0 48 47" style="enable-background:new 0 0 48 47;" xml:space="preserve">
<style type="text/css">
	.st0{fill:#FFFFFF;}
</style>
<g>
	<g>
		<path class="st0" d="M27,10.9c0-0.1,0-0.2,0-0.3c0-1.7-1.3-3-3-3s-3,1.3-3,3c0,0.1,0,0.2,0,0.3h-1.9V13c0,0.7,0.6,1.3,1.3,1.3h7.2
			c0.7,0,1.3-0.6,1.3-1.3v-2.1H27z M24,8.6c0.6,0,1.1,0.5,1.1,1.1s-0.5,1.1-1.1,1.1s-1.1-0.5-1.1-1.1S23.4,8.6,24,8.6z"/>
		<g>
			<path class="st0" d="M35,12.9c-0.2-0.9-0.9-1.6-1.9-1.6h-0.8v4.2L35,12.9z"/>
			<path class="st0" d="M32.4,27v7.9H15.6V11.3h-0.8c-1.1,0-1.9,0.9-1.9,1.9v24.3c0,1.1,0.9,1.9,1.9,1.9H33c1.1,0,1.9-0.9,1.9-1.9
				V24.3L32.4,27z"/>
		</g>
		<polygon class="st0" points="25.6,22.2 17.4,22.2 17.4,23.1 24.7,23.1 		"/>
		<polygon class="st0" points="28.2,19.6 17.4,19.6 17.4,20.6 27.2,20.6 		"/>
		<polygon class="st0" points="30.7,17.2 30.7,17.1 17.3,17.1 17.3,18.1 29.8,18.1 		"/>
	</g>
	<g>
		<path class="st0" d="M19.1,10.9V13c0,0.7,0.6,1.3,1.3,1.3h7.2c0.7,0,1.3-0.6,1.3-1.3v-2.1H27c0-0.1,0-0.2,0-0.3c0-1.7-1.3-3-3-3
			s-3,1.3-3,3c0,0.1,0,0.2,0,0.3H19.1z M25.1,9.7c0,0.6-0.5,1.1-1.1,1.1s-1.1-0.5-1.1-1.1s0.5-1.1,1.1-1.1
			C24.6,8.6,25.1,9.1,25.1,9.7z"/>
		<g>
			<path class="st0" d="M13,12.9c0.2-0.9,0.9-1.6,1.9-1.6h0.8v4.2L13,12.9z"/>
			<path class="st0" d="M15.6,27v7.9h16.7V11.3h0.8c1.1,0,1.9,0.9,1.9,1.9v24.3c0,1.1-0.9,1.9-1.9,1.9H14.9c-1.1,0-1.9-0.9-1.9-1.9
				V24.3L15.6,27z"/>
		</g>
		<polygon class="st0" points="22.4,22.2 30.6,22.2 30.6,23.1 23.3,23.1 		"/>
		<polygon class="st0" points="19.8,19.6 30.6,19.6 30.6,20.6 20.8,20.6 		"/>
		<polygon class="st0" points="17.3,17.2 17.3,17.1 30.7,17.1 30.7,18.1 18.2,18.1 		"/>
	</g>
</g>
</svg>
