<?xml version="1.0" encoding="utf-8"?>
<!-- Generator: Adobe Illustrator 22.0.1, SVG Export Plug-In . SVG Version: 6.00 Build 0)  -->
<svg version="1.1" id="Layer_1" xmlns="http://www.w3.org/2000/svg" xmlns:xlink="http://www.w3.org/1999/xlink" x="0px" y="0px"
	 viewBox="0 0 48 47" style="enable-background:new 0 0 48 47;" xml:space="preserve">
<style type="text/css">
	.st0{fill:#838382;}
</style>
<path class="st0" d="M39.2,20.5c-0.1,1.4-1.4,2.5-2.9,2.4l-3.9-0.4v0.1l3.1,0.3c1.3,0.1,2.2,1.4,2.1,2.9c-0.1,1.4-1.3,2.5-2.5,2.4
	l-10.5-1.1H23c0,0,2.1,1,0.6,8.8c-1.7,7.8-6,4.9-6,4.9s0-6.7-0.3-7.5C17,32.2,12,22.3,12,22.3c0-0.6-3.2-1.1-3.2-1.5
	c0-4.6,0-8.5,0-13.3c3.4,0.8,5.2-1.8,12.4-1.8c2.4,0,5.3,0.4,7.8,0.8l6.6,0.7c1.1,0.1,2,1.4,1.8,2.8c-0.1,1.1-0.7,2-1.5,2.4l0.8,0.1
	c1.3,0.1,2.2,1.4,2.1,2.9c-0.1,1.3-1,2.1-2.1,2.4H37C38.4,17.7,39.4,19.1,39.2,20.5z"/>
</svg>
