<?xml version="1.0" encoding="utf-8"?>
<!-- Generator: Adobe Illustrator 21.1.0, SVG Export Plug-In . SVG Version: 6.00 Build 0)  -->
<svg version="1.1" id="Layer_1" xmlns="http://www.w3.org/2000/svg" xmlns:xlink="http://www.w3.org/1999/xlink" x="0px" y="0px"
	 viewBox="0 0 48 47" style="enable-background:new 0 0 48 47;" xml:space="preserve">
<style type="text/css">
	.st0{fill-rule:evenodd;clip-rule:evenodd;fill:#838382;}
	.st1{fill:#838382;}
</style>
<g>
	<path class="st0" d="M15.6,7V13h2V7H15.6z M33.8,7V13h2V7H33.8z M39.8,17.1v20.2H11.6V17.1H39.8z M37.8,39.3c2.2,0,4.1-1.8,4.1-4.1
		V13.1c0-2.2-1.8-4.1-4.1-4.1h0v3c0,1.7-1.4,3-3,3c-1.7,0-3-1.4-3-3V9H19.6v3c0,1.7-1.4,3-3,3c-1.7,0-3-1.4-3-3V9h0
		c-2.2,0-4.1,1.8-4.1,4.1v22.2c0,2.2,1.8,4.1,4.1,4.1H37.8z"/>
	<rect x="32.4" y="20.1" class="st0" width="5.5" height="4.1"/>
	<rect x="22.8" y="20.1" class="st0" width="5.5" height="4.1"/>
	<rect x="13.2" y="20.1" class="st0" width="5.5" height="4.1"/>
	<polygon class="st1" points="2.9,40.9 9.2,34.6 4.1,32.1 18.7,27.2 13.8,41.8 11.3,36.7 5,43 	"/>
	<rect x="32.4" y="26.9" class="st0" width="5.5" height="4.1"/>
	<rect x="22.8" y="26.9" class="st0" width="5.5" height="4.1"/>
</g>
</svg>
