<?xml version="1.0" encoding="utf-8"?>
<!-- Generator: Adobe Illustrator 22.0.1, SVG Export Plug-In . SVG Version: 6.00 Build 0)  -->
<svg version="1.1" id="Layer_1" xmlns="http://www.w3.org/2000/svg" xmlns:xlink="http://www.w3.org/1999/xlink" x="0px" y="0px"
	 viewBox="0 0 48 47" style="enable-background:new 0 0 48 47;" xml:space="preserve">
<style type="text/css">
	.st0{fill:#838382;}
</style>
<g>
	<g>
		<rect x="18.4" y="9.7" class="st0" width="11.8" height="5.5"/>
		<polygon class="st0" points="24.5,14.1 24.2,14.1 13.6,14.1 13.6,23.5 15.8,22.5 15.8,16.6 19.7,16.6 19.7,20.8 22.5,19.5 
			22.5,16.6 24.2,16.6 24.5,16.6 26.2,16.6 26.2,19.5 29,20.8 29,16.6 32.9,16.6 32.9,22.5 35.1,23.5 35.1,14.1 		"/>
		<path class="st0" d="M24.4,20.6L24.4,20.6L24.4,20.6L24.4,20.6L24.4,20.6L9,27.5l2.3,6.5c0.5,1.4,1.3,2.7,2.3,3.8l0,0l0,0
			c0.2-0.2,0.6-0.4,0.9-0.7l0.2-0.2c0.4-0.3,0.8-0.7,1.3-1c1.3-1,2.7-1.7,4.2-2.2c0.7-0.2,1.4-0.4,2.3-0.5l0,0h0.2
			c0.2,0,0.3,0,0.5-0.1l0.3-4.8c0.1-1.6,0.3-2.9,0.6-3.9l0.2-0.5l0.2,0.5c0.3,1,0.5,2.3,0.6,3.9l0.3,4.8c0.2,0,0.3,0,0.5,0.1h0.2
			l0,0c0.9,0.1,1.6,0.3,2.3,0.5c1.5,0.5,2.9,1.2,4.2,2.2c0.5,0.3,0.9,0.7,1.3,1l0.2,0.2c0.4,0.3,0.7,0.6,0.9,0.7l0,0l0,0
			c1-1.1,1.8-2.3,2.3-3.8l2.3-6.5L24.4,20.6z"/>
		<g>
			<rect x="22.2" y="6.4" class="st0" width="4.3" height="3.7"/>
			<rect x="22.2" y="4.8" class="st0" width="4.3" height="1.1"/>
		</g>
	</g>
	<rect x="13.1" y="28.8" class="st0" width="22.6" height="9.1"/>
</g>
<g>
	<g>
		<g>
			<polygon class="st0" points="43.5,31.8 12.4,31.8 13.4,32.9 42.5,32.9 			"/>
			<polygon class="st0" points="16.1,35.6 40.2,35.6 41.3,34.5 15.1,34.5 			"/>
			<polygon class="st0" points="18.9,38.3 37.5,38.3 38.6,37.2 17.8,37.2 			"/>
			<polygon class="st0" points="21.6,41 34.8,41 35.9,39.9 20.5,39.9 			"/>
			<polygon class="st0" points="24.3,43.7 32.1,43.7 33.1,42.7 23.2,42.7 			"/>
		</g>
	</g>
	<g>
		<g>
			<polygon class="st0" points="36.2,31.8 5.1,31.8 6.1,32.9 35.2,32.9 			"/>
			<polygon class="st0" points="8.8,35.6 32.9,35.6 34,34.5 7.8,34.5 			"/>
			<polygon class="st0" points="11.6,38.3 30.2,38.3 31.3,37.2 10.5,37.2 			"/>
			<polygon class="st0" points="14.3,41 27.5,41 28.6,39.9 13.2,39.9 			"/>
			<polygon class="st0" points="17,43.7 24.8,43.7 25.8,42.7 15.9,42.7 			"/>
		</g>
	</g>
</g>
</svg>
