<?xml version="1.0" encoding="utf-8"?>
<!-- Generator: Adobe Illustrator 21.1.0, SVG Export Plug-In . SVG Version: 6.00 Build 0)  -->
<svg version="1.1" id="Layer_1" xmlns="http://www.w3.org/2000/svg" xmlns:xlink="http://www.w3.org/1999/xlink" x="0px" y="0px"
	 viewBox="0 0 48 47" style="enable-background:new 0 0 48 47;" xml:space="preserve">
<style type="text/css">
	.st0{fill:#FFFFFF;}
</style>
<path class="st0" d="M40.4,35.4l-5.8-5.8c1.5-2.3,2.3-5,2.3-8c0-8.2-6.6-14.8-14.8-14.8c-8.2,0-14.8,6.6-14.8,14.8
	c0,8.2,6.6,14.8,14.8,14.8c2.9,0,5.7-0.9,8-2.3l5.8,5.8c0.4,0.4,1.1,0.4,1.5,0l3-3C40.8,36.5,40.8,35.8,40.4,35.4z M22.1,32.2
	c-5.8,0-10.6-4.7-10.6-10.6c0-5.8,4.7-10.6,10.6-10.6c5.8,0,10.6,4.7,10.6,10.6C32.7,27.4,27.9,32.2,22.1,32.2z"/>
</svg>
