<?xml version="1.0" encoding="utf-8"?>
<!-- Generator: Adobe Illustrator 21.1.0, SVG Export Plug-In . SVG Version: 6.00 Build 0)  -->
<svg version="1.1" id="Layer_1" xmlns="http://www.w3.org/2000/svg" xmlns:xlink="http://www.w3.org/1999/xlink" x="0px" y="0px"
	 viewBox="0 0 48 47" style="enable-background:new 0 0 48 47;" xml:space="preserve">
<style type="text/css">
	.st0{fill:#FFFFFF;}
</style>
<g>
	<g>
		<g>
			<path class="st0" d="M31.7,32.9v-4h-3c-0.2-0.8-0.5-1.6-1-2.4l2.1-2.1L27,21.5l-2.1,2.1c-0.7-0.4-1.5-0.8-2.4-1v-3h-4v3
				c-0.8,0.2-1.6,0.5-2.4,1L14,21.5l-2.9,2.9l2.1,2.1c-0.4,0.7-0.8,1.5-1,2.4h-3v4h3c0.2,0.8,0.5,1.6,1,2.4l-2.1,2.1l2.9,2.9
				l2.1-2.1c0.7,0.4,1.5,0.8,2.4,1v3h4v-3c0.8-0.2,1.6-0.5,2.4-1l2.1,2.1l2.9-2.9l-2.1-2.1c0.4-0.7,0.8-1.5,1-2.4H31.7z M20.5,35.7
				c-2.7,0-4.9-2.2-4.9-4.9s2.2-4.9,4.9-4.9s4.9,2.2,4.9,4.9S23.2,35.7,20.5,35.7z"/>
		</g>
	</g>
	<g>
		<g>
			<path class="st0" d="M38,15.1v-2.7h-2c-0.1-0.6-0.4-1.1-0.6-1.6l1.4-1.4l-1.9-1.9L33.4,9c-0.5-0.3-1-0.5-1.6-0.6v-2h-2.7v2
				C28.5,8.5,28,8.8,27.5,9l-1.4-1.4l-1.9,1.9l1.4,1.4c-0.3,0.5-0.5,1-0.6,1.6h-2v2.7h2c0.1,0.6,0.4,1.1,0.6,1.6l-1.4,1.4l1.9,1.9
				l1.4-1.4c0.5,0.3,1,0.5,1.6,0.6v2h2.7v-2c0.6-0.1,1.1-0.4,1.6-0.6l1.4,1.4l1.9-1.9l-1.4-1.4c0.3-0.5,0.5-1,0.6-1.6L38,15.1z
				 M30.5,17c-1.8,0-3.2-1.4-3.2-3.2s1.4-3.2,3.2-3.2c1.8,0,3.2,1.4,3.2,3.2C33.8,15.6,32.3,17,30.5,17z"/>
		</g>
	</g>
</g>
</svg>
