<?xml version="1.0" encoding="utf-8"?>
<!-- Generator: Adobe Illustrator 21.1.0, SVG Export Plug-In . SVG Version: 6.00 Build 0)  -->
<svg version="1.1" id="Layer_1" xmlns="http://www.w3.org/2000/svg" xmlns:xlink="http://www.w3.org/1999/xlink" x="0px" y="0px"
	 viewBox="0 0 48 47" style="enable-background:new 0 0 48 47;" xml:space="preserve">
<style type="text/css">
	.st0{fill-rule:evenodd;clip-rule:evenodd;fill:#838382;}
</style>
<g>
	<polygon class="st0" points="20.5,25.5 22.7,25.5 25.9,21.4 20.5,21.4 	"/>
	<g>
		<path class="st0" d="M12.1,7.2v6.1h2V7.2H12.1z M30.3,7.2v6.1h2V7.2H30.3z M34.3,9.2v3c0,1.7-1.3,3-3,3c-1.7,0-3-1.4-3-3v-3H16.1
			v3c0,1.7-1.3,3-3,3s-3-1.4-3-3v-3c-2.2,0-4,1.8-4,4.1v22.2c0,2.2,1.8,4.1,4.1,4.1h19.8c-0.1-0.1-0.1-0.2-0.2-0.3
			c-1.4-0.3-2.7-0.9-3.8-1.7H8V17.3h28.3V22c0.7,0.4,1.3,0.9,1.9,1.4c0.1,0.1,0.1,0.1,0.2,0.2V13.2C38.3,11,36.5,9.2,34.3,9.2z"/>
	</g>
	<g>
		<path class="st0" d="M37,31.3c-0.1-0.2-0.4-0.3-0.7-0.3h-5.2l-1.4-1.4l-2.2-2.2c-0.2-0.2-0.4-0.3-0.7-0.3c-0.2,0-0.5,0.1-0.7,0.3
			c-0.1,0.2-0.3,0.4-0.3,0.7c0,0.2,0.1,0.5,0.3,0.7l4,4c0.1,0.1,0.2,0.1,0.3,0.2c0.1,0,0.2,0.1,0.4,0.1h5.6c0.3,0,0.5-0.1,0.7-0.3
			c0.2-0.2,0.3-0.4,0.3-0.7C37.3,31.7,37.2,31.5,37,31.3z M37,31.3c-0.1-0.2-0.4-0.3-0.7-0.3h-5.2l-1.4-1.4l-2.2-2.2
			c-0.2-0.2-0.4-0.3-0.7-0.3c-0.2,0-0.5,0.1-0.7,0.3c-0.1,0.2-0.3,0.4-0.3,0.7c0,0.2,0.1,0.5,0.3,0.7l4,4c0.1,0.1,0.2,0.1,0.3,0.2
			c0.1,0,0.2,0.1,0.4,0.1h5.6c0.3,0,0.5-0.1,0.7-0.3c0.2-0.2,0.3-0.4,0.3-0.7C37.3,31.7,37.2,31.5,37,31.3z M37,31.3
			c-0.1-0.2-0.4-0.3-0.7-0.3h-5.2l-1.4-1.4l-2.2-2.2c-0.2-0.2-0.4-0.3-0.7-0.3c-0.2,0-0.5,0.1-0.7,0.3c-0.1,0.2-0.3,0.4-0.3,0.7
			c0,0.2,0.1,0.5,0.3,0.7l4,4c0.1,0.1,0.2,0.1,0.3,0.2c0.1,0,0.2,0.1,0.4,0.1h5.6c0.3,0,0.5-0.1,0.7-0.3c0.2-0.2,0.3-0.4,0.3-0.7
			C37.3,31.7,37.2,31.5,37,31.3z M37,31.3c-0.1-0.2-0.4-0.3-0.7-0.3h-5.2l-1.4-1.4l-2.2-2.2c-0.2-0.2-0.4-0.3-0.7-0.3
			c-0.2,0-0.5,0.1-0.7,0.3c-0.1,0.2-0.3,0.4-0.3,0.7c0,0.2,0.1,0.5,0.3,0.7l4,4c0.1,0.1,0.2,0.1,0.3,0.2c0.1,0,0.2,0.1,0.4,0.1h5.6
			c0.3,0,0.5-0.1,0.7-0.3c0.2-0.2,0.3-0.4,0.3-0.7C37.3,31.7,37.2,31.5,37,31.3z M37,31.3c-0.1-0.2-0.4-0.3-0.7-0.3h-5.2l-1.4-1.4
			l-2.2-2.2c-0.2-0.2-0.4-0.3-0.7-0.3c-0.2,0-0.5,0.1-0.7,0.3c-0.1,0.2-0.3,0.4-0.3,0.7c0,0.2,0.1,0.5,0.3,0.7l4,4
			c0.1,0.1,0.2,0.1,0.3,0.2c0.1,0,0.2,0.1,0.4,0.1h5.6c0.3,0,0.5-0.1,0.7-0.3c0.2-0.2,0.3-0.4,0.3-0.7C37.3,31.7,37.2,31.5,37,31.3z
			 M37,31.3c-0.1-0.2-0.4-0.3-0.7-0.3h-5.2l-1.4-1.4l-2.2-2.2c-0.2-0.2-0.4-0.3-0.7-0.3c-0.2,0-0.5,0.1-0.7,0.3
			c-0.1,0.2-0.3,0.4-0.3,0.7c0,0.2,0.1,0.5,0.3,0.7l4,4c0.1,0.1,0.2,0.1,0.3,0.2c0.1,0,0.2,0.1,0.4,0.1h5.6c0.3,0,0.5-0.1,0.7-0.3
			c0.2-0.2,0.3-0.4,0.3-0.7C37.3,31.7,37.2,31.5,37,31.3z M39.5,22.1c-0.4-0.4-0.7-0.7-1.2-1c-0.6-0.5-1.3-0.9-2-1.2
			c-1.4-0.7-3-1.1-4.7-1.1c-0.6,0-1.3,0.1-1.9,0.2c-2.3,0.4-4.4,1.5-6.1,3.1c-2,2-3.3,4.8-3.3,7.9c0,1.2,0.2,2.3,0.5,3.3
			c0.2,0.6,0.5,1.3,0.8,1.9c0.4,0.8,0.9,1.6,1.5,2.2c0.1,0.2,0.3,0.3,0.4,0.5c0.6,0.6,1.2,1.1,2,1.5c1.7,1.1,3.8,1.7,6,1.7
			c3.1,0,5.9-1.2,7.9-3.3c2-2,3.3-4.8,3.3-7.9C42.8,26.9,41.5,24.1,39.5,22.1z M38.2,36.6c-1.7,1.7-4,2.7-6.6,2.7
			c-0.6,0-1.3-0.1-1.9-0.2c-1.4-0.3-2.7-0.9-3.8-1.7c-0.4-0.2-0.7-0.5-1-0.8c-0.4-0.4-0.8-0.9-1.1-1.4c-0.4-0.6-0.7-1.2-1-1.9
			c-0.4-1-0.6-2.2-0.6-3.3c0-2.6,1-4.9,2.7-6.6c1.3-1.3,2.9-2.2,4.8-2.5c0.6-0.1,1.2-0.2,1.9-0.2c1.7,0,3.3,0.5,4.7,1.3
			c0.7,0.4,1.3,0.9,1.9,1.4c0.1,0.1,0.1,0.1,0.2,0.2c1.6,1.7,2.6,3.9,2.6,6.4C40.9,32.6,39.9,34.9,38.2,36.6z M36.3,31h-5.2
			l-1.4-1.4l-2.2-2.2c-0.2-0.2-0.4-0.3-0.7-0.3c-0.2,0-0.5,0.1-0.7,0.3c-0.1,0.2-0.3,0.4-0.3,0.7c0,0.2,0.1,0.5,0.3,0.7l4,4
			c0.1,0.1,0.2,0.1,0.3,0.2c0.1,0,0.2,0.1,0.4,0.1h5.6c0.3,0,0.5-0.1,0.7-0.3c0.2-0.2,0.3-0.4,0.3-0.7c0-0.3-0.1-0.5-0.3-0.7
			C36.8,31.1,36.6,31,36.3,31z M37,31.3c-0.1-0.2-0.4-0.3-0.7-0.3h-5.2l-1.4-1.4l-2.2-2.2c-0.2-0.2-0.4-0.3-0.7-0.3
			c-0.2,0-0.5,0.1-0.7,0.3c-0.1,0.2-0.3,0.4-0.3,0.7c0,0.2,0.1,0.5,0.3,0.7l4,4c0.1,0.1,0.2,0.1,0.3,0.2c0.1,0,0.2,0.1,0.4,0.1h5.6
			c0.3,0,0.5-0.1,0.7-0.3c0.2-0.2,0.3-0.4,0.3-0.7C37.3,31.7,37.2,31.5,37,31.3z M37,31.3c-0.1-0.2-0.4-0.3-0.7-0.3h-5.2l-1.4-1.4
			l-2.2-2.2c-0.2-0.2-0.4-0.3-0.7-0.3c-0.2,0-0.5,0.1-0.7,0.3c-0.1,0.2-0.3,0.4-0.3,0.7c0,0.2,0.1,0.5,0.3,0.7l4,4
			c0.1,0.1,0.2,0.1,0.3,0.2c0.1,0,0.2,0.1,0.4,0.1h5.6c0.3,0,0.5-0.1,0.7-0.3c0.2-0.2,0.3-0.4,0.3-0.7C37.3,31.7,37.2,31.5,37,31.3z
			"/>
	</g>
	<rect x="10.9" y="21.4" class="st0" width="5.5" height="4.1"/>
	<rect x="10.9" y="28.2" class="st0" width="5.5" height="4.1"/>
</g>
</svg>
