<?xml version="1.0" encoding="utf-8"?>
<!-- Generator: Adobe Illustrator 21.1.0, SVG Export Plug-In . SVG Version: 6.00 Build 0)  -->
<svg version="1.1" id="Layer_1" xmlns="http://www.w3.org/2000/svg" xmlns:xlink="http://www.w3.org/1999/xlink" x="0px" y="0px"
	 viewBox="0 0 48 47" style="enable-background:new 0 0 48 47;" xml:space="preserve">
<style type="text/css">
	.st0{fill:#FFFFFF;}
</style>
<g>
	<polygon class="st0" points="2.1,32.3 5.7,32.3 5.8,32.3 5.8,26.7 8.2,26.7 8.2,32.3 8.3,32.3 11.9,32.3 7,39.9 	"/>
	
		<rect x="5.7" y="13.1" transform="matrix(-1 -1.224647e-16 1.224647e-16 -1 13.98 45.624)" class="st0" width="2.6" height="19.5"/>
	<polygon class="st0" points="11.9,14.7 8.3,14.7 8.2,14.7 8.2,20.3 5.8,20.3 5.8,14.7 5.7,14.7 2.1,14.7 7,7.1 	"/>
</g>
<g>
	<path class="st0" d="M34.3,25.4H17.2c-1.1,0-1.9-0.9-1.9-1.9v0c0-1.1,0.9-1.9,1.9-1.9h17.2c1.1,0,1.9,0.9,1.9,1.9v0
		C36.2,24.6,35.4,25.4,34.3,25.4z"/>
	<path class="st0" d="M38.7,18.7H17.2c-1.1,0-1.9-0.9-1.9-1.9v0c0-1.1,0.9-1.9,1.9-1.9h21.5c1.1,0,1.9,0.9,1.9,1.9v0
		C40.6,17.8,39.7,18.7,38.7,18.7z"/>
	<path class="st0" d="M29,32.2H17.2c-1.1,0-1.9-0.9-1.9-1.9v0c0-1.1,0.9-1.9,1.9-1.9H29c1.1,0,1.9,0.9,1.9,1.9v0
		C30.9,31.3,30,32.2,29,32.2z"/>
	<path class="st0" d="M24.1,38.9h-6.9c-1.1,0-1.9-0.9-1.9-1.9v0c0-1.1,0.9-1.9,1.9-1.9h6.9c1.1,0,1.9,0.9,1.9,1.9v0
		C26,38.1,25.1,38.9,24.1,38.9z"/>
	<path class="st0" d="M42.6,11.9H17.2c-1.1,0-1.9-0.9-1.9-1.9v0c0-1.1,0.9-1.9,1.9-1.9h25.4c1.1,0,1.9,0.9,1.9,1.9v0
		C44.5,11.1,43.6,11.9,42.6,11.9z"/>
</g>
</svg>
