<?xml version="1.0" encoding="utf-8"?>
<!-- Generator: Adobe Illustrator 21.1.0, SVG Export Plug-In . SVG Version: 6.00 Build 0)  -->
<svg version="1.1" id="Layer_1" xmlns="http://www.w3.org/2000/svg" xmlns:xlink="http://www.w3.org/1999/xlink" x="0px" y="0px"
	 viewBox="0 0 48 47" style="enable-background:new 0 0 48 47;" xml:space="preserve">
<style type="text/css">
	.st0{fill:#838382;}
</style>
<g>
	<path class="st0" d="M27.8,27.4H10.1c-0.8,0-1.5,0.7-1.5,1.5v1.7c0,0.8,0.7,1.5,1.5,1.5h17c-0.1-0.4-0.1-0.7-0.1-1.1
		C27,29.6,27.3,28.5,27.8,27.4z M14.2,29.4l-0.8,0.8l0.3,1.1c0,0.1,0,0.2-0.1,0.2c0,0-0.1,0-0.1,0l-0.8-0.3l-0.2-0.1L12,31.3
		l-0.4,0.2c0,0-0.1,0-0.1,0c-0.1,0-0.1-0.1-0.1-0.2l0,0l0.1-1.1l-0.8-0.7c-0.1-0.1-0.1-0.2,0.1-0.3l0.8-0.2l0.2,0l0.5-1
		c0-0.1,0.1-0.1,0.1-0.1c0,0,0.1,0,0.1,0.1l0.5,0.9l1.1,0.2C14.3,29.1,14.4,29.2,14.2,29.4z"/>
	<path class="st0" d="M35.3,14.2H10.1c-0.8,0-1.5,0.7-1.5,1.5v1.7c0,0.8,0.7,1.5,1.5,1.5h25.1c0.8,0,1.5-0.7,1.5-1.5v-1.7
		C36.7,14.9,36.1,14.2,35.3,14.2z M14.2,16.2L13.4,17l0.3,1.1c0,0.1,0,0.2-0.1,0.2c0,0-0.1,0-0.1,0l-0.8-0.3l-0.2-0.1L12,18.1
		l-0.4,0.2c0,0-0.1,0-0.1,0c-0.1,0-0.1-0.1-0.1-0.2l0,0l0.1-1.1l-0.8-0.7c-0.1-0.1-0.1-0.2,0.1-0.3l0.8-0.2l0.2,0l0.5-1
		c0-0.1,0.1-0.1,0.1-0.1c0,0,0.1,0,0.1,0.1l0.5,0.9l1.1,0.2C14.3,15.9,14.4,16.1,14.2,16.2z"/>
	<path class="st0" d="M35.3,20.8H10.1c-0.8,0-1.5,0.7-1.5,1.5V24c0,0.8,0.7,1.5,1.5,1.5h19.1c1.4-1.5,3.5-2.5,5.7-2.5
		c0.6,0,1.2,0.1,1.8,0.2v-0.9C36.7,21.5,36.1,20.8,35.3,20.8z M14.2,22.8l-0.8,0.8l0.3,1.1c0,0.1,0,0.2-0.1,0.2c0,0-0.1,0-0.1,0
		l-0.8-0.3l-0.2-0.1L12,24.7l-0.4,0.2c0,0-0.1,0-0.1,0c-0.1,0-0.1-0.1-0.1-0.2l0,0l0.1-1.1l-0.8-0.7c-0.1-0.1-0.1-0.2,0.1-0.3
		l0.8-0.2l0.2,0l0.5-1c0-0.1,0.1-0.1,0.1-0.1c0,0,0.1,0,0.1,0.1l0.5,0.9l1.1,0.2C14.3,22.5,14.4,22.7,14.2,22.8z"/>
	<path class="st0" d="M35.3,7.9H10.1c-0.8,0-1.5,0.7-1.5,1.5V11c0,0.8,0.7,1.5,1.5,1.5h25.1c0.8,0,1.5-0.7,1.5-1.5V9.4
		C36.7,8.6,36.1,7.9,35.3,7.9z M14.2,9.9l-0.8,0.8l0.3,1.1c0,0.1,0,0.2-0.1,0.2c0,0-0.1,0-0.1,0l-0.8-0.3l-0.2-0.1L12,11.8L11.5,12
		c0,0-0.1,0-0.1,0c-0.1,0-0.1-0.1-0.1-0.2l0-0.1l0.1-1.1L10.6,10c-0.1-0.1-0.1-0.2,0.1-0.3l0.8-0.2l0.2-0.1l0.5-1
		c0-0.1,0.1-0.1,0.1-0.1c0,0,0.1,0,0.1,0.1l0.5,0.9l1.1,0.2C14.3,9.6,14.4,9.7,14.2,9.9z"/>
	<path class="st0" d="M27.7,34H10.1c-0.8,0-1.5,0.7-1.5,1.5v1.7c0,0.8,0.7,1.5,1.5,1.5h23.1C30.7,38,28.7,36.3,27.7,34z M14.2,35.9
		l-0.8,0.8l0.3,1.1c0,0.1,0,0.2-0.1,0.2c0,0-0.1,0-0.1,0l-0.8-0.3l-0.2-0.1L12,37.9l-0.4,0.2c0,0-0.1,0-0.1,0
		c-0.1,0-0.1-0.1-0.1-0.2l0,0l0.1-1.1l-0.8-0.7c-0.1-0.1-0.1-0.2,0.1-0.3l0.8-0.2l0.2-0.1l0.5-1c0-0.1,0.1-0.1,0.1-0.1
		c0,0,0.1,0,0.1,0.1l0.5,0.9l1.1,0.2C14.3,35.7,14.4,35.8,14.2,35.9z"/>
	<path class="st0" d="M35,37.5c0.8,0,1.7-0.2,2.4-0.5c0.9-0.3,1.6-0.9,2.3-1.5c0.2-0.2,0.4-0.5,0.6-0.7c0.7-1.1,1.2-2.3,1.2-3.7
		c0-0.3,0-0.5-0.1-0.8c-0.4-3.2-3.1-5.7-6.4-5.7c-3.6,0-6.5,2.9-6.5,6.5S31.5,37.5,35,37.5z M31,29.5h2.5V27h2.9v2.5h2.5v0.7v2.3
		h-1.6h-0.9V35h-2.9v-2.5H31V29.5z"/>
</g>
</svg>
