<?xml version="1.0" encoding="utf-8"?>
<!-- Generator: Adobe Illustrator 22.0.1, SVG Export Plug-In . SVG Version: 6.00 Build 0)  -->
<svg version="1.1" id="Layer_1" xmlns="http://www.w3.org/2000/svg" xmlns:xlink="http://www.w3.org/1999/xlink" x="0px" y="0px"
	 viewBox="0 0 48 47" style="enable-background:new 0 0 48 47;" xml:space="preserve">
<style type="text/css">
	.st0{fill:#838382;}
</style>
<g>
	<path class="st0" d="M26.9,33.9L26.9,33.9c-0.2,0-0.5-0.1-0.8-0.2c-0.3-0.2-0.5-0.3-0.6-0.5l-4.6-4.6c-0.4-0.3-0.5-0.9-0.5-1.5
		c0-0.5,0.2-1,0.5-1.4c0.4-0.4,0.9-0.5,1.5-0.5c0.5,0,1,0.2,1.4,0.5l3.1,3.3l10.6-10.5c0.4-0.4,0.9-0.5,1.5-0.5c0.5,0,1,0.2,1.4,0.5
		c0.5,0.3,0.5,0.9,0.5,1.5s-0.2,1-0.5,1.4L28.4,33.3c-0.2,0.2-0.5,0.3-0.6,0.5C27.4,33.8,27.1,33.9,26.9,33.9L26.9,33.9z"/>
	<g>
		<g>
			<g>
				<path class="st0" d="M25.3,7.6c0-0.1,0-0.3,0-0.4c0-2-1.6-3.5-3.5-3.5c-2,0-3.5,1.6-3.5,3.5c0,0.1,0,0.3,0,0.4H16V10
					c0,0.8,0.7,1.5,1.5,1.5h8.5c0.8,0,1.5-0.7,1.5-1.5V7.6H25.3z M21.8,4.9c0.7,0,1.3,0.6,1.3,1.3c0,0.7-0.6,1.3-1.3,1.3
					c-0.7,0-1.3-0.6-1.3-1.3C20.5,5.5,21.1,4.9,21.8,4.9z"/>
				<g>
					<path class="st0" d="M34.8,10c-0.2-1.1-1.1-1.8-2.2-1.8h-0.9V13L34.8,10z"/>
					<path class="st0" d="M31.7,26.6v9.4H11.9V8.1H11c-1.2,0-2.2,1-2.2,2.2v28.7c0,1.2,1,2.2,2.2,2.2h21.5c1.2,0,2.2-1,2.2-2.2V23.5
						L31.7,26.6z"/>
				</g>
				<polygon class="st0" points="23.7,20.9 14,20.9 14,22 22.6,22 				"/>
				<polygon class="st0" points="26.8,17.9 14,17.9 14,19 25.6,19 				"/>
				<polygon class="st0" points="29.7,15 29.7,14.9 14,14.9 14,16.1 28.6,16.1 				"/>
			</g>
			<g>
				<path class="st0" d="M16,7.6V10c0,0.8,0.7,1.5,1.5,1.5h8.5c0.8,0,1.5-0.7,1.5-1.5V7.6h-2.3c0-0.1,0-0.3,0-0.4
					c0-2-1.6-3.5-3.5-3.5c-2,0-3.5,1.6-3.5,3.5c0,0.1,0,0.3,0,0.4H16z M23.1,6.2c0,0.7-0.6,1.3-1.3,1.3c-0.7,0-1.3-0.6-1.3-1.3
					c0-0.7,0.6-1.3,1.3-1.3C22.5,4.9,23.1,5.5,23.1,6.2z"/>
				<g>
					<path class="st0" d="M8.8,10C9,8.9,9.9,8.1,11,8.1h0.9V13L8.8,10z"/>
					<path class="st0" d="M11.9,26.6v9.4h19.7V8.1h0.9c1.2,0,2.2,1,2.2,2.2v28.7c0,1.2-1,2.2-2.2,2.2H11c-1.2,0-2.2-1-2.2-2.2V23.5
						L11.9,26.6z"/>
				</g>
				<polygon class="st0" points="19.9,20.9 29.6,20.9 29.6,22 21,22 				"/>
				<polygon class="st0" points="16.9,17.9 29.6,17.9 29.6,19 18,19 				"/>
				<polygon class="st0" points="14,15 14,14.9 29.7,14.9 29.7,16.1 15,16.1 				"/>
			</g>
		</g>
	</g>
</g>
</svg>
