<?xml version="1.0" encoding="utf-8"?>
<!-- Generator: Adobe Illustrator 22.0.1, SVG Export Plug-In . SVG Version: 6.00 Build 0)  -->
<svg version="1.1" id="Layer_1" xmlns="http://www.w3.org/2000/svg" xmlns:xlink="http://www.w3.org/1999/xlink" x="0px" y="0px"
	 viewBox="0 0 48 47" style="enable-background:new 0 0 48 47;" xml:space="preserve">
<style type="text/css">
	.st0{fill:#838382;}
</style>
<g>
	<path class="st0" d="M40.8,37.7l-16-29.1c-0.3-0.4-0.5-0.7-1-0.7c-0.5,0-0.8,0.3-1,0.7l-16,29.1c-0.3,0.4-0.1,0.8,0,1.2
		c0.3,0.4,0.7,0.7,1,0.7h32c0.5,0,0.8-0.3,1-0.7S41,38.1,40.8,37.7L40.8,37.7z M23.8,31.8L23.8,31.8c-0.8,0-1.7,0.7-1.7,1.6
		c0,0.8,0.7,1.6,1.7,1.6c0.8,0,1.6-0.7,1.6-1.6S24.6,31.8,23.8,31.8L23.8,31.8z M22.3,20.1L22.3,20.1v8.6c0,0.8,0.7,1.6,1.6,1.6
		c0.8,0,1.4-0.7,1.4-1.6v-8.6c0-0.8-0.7-1.6-1.4-1.6C23.1,18.7,22.3,19.3,22.3,20.1L22.3,20.1z M9.8,37.2L9.8,37.2l14.1-25.4
		l13.9,25.4H9.8z"/>
</g>
</svg>
