<?xml version="1.0" encoding="utf-8"?>
<!-- Generator: Adobe Illustrator 21.1.0, SVG Export Plug-In . SVG Version: 6.00 Build 0)  -->
<svg version="1.1" id="Layer_1" xmlns="http://www.w3.org/2000/svg" xmlns:xlink="http://www.w3.org/1999/xlink" x="0px" y="0px"
	 viewBox="0 0 48 47" style="enable-background:new 0 0 48 47;" xml:space="preserve">
<style type="text/css">
	.st0{fill:#838382;}
	.st1{fill-rule:evenodd;clip-rule:evenodd;fill:#838382;}
</style>
<g>
	<path class="st0" d="M27.2,8.9H11v30.8h25v-22L27.2,8.9z M32.1,35.9H14.8V12.8h10.8l0.8,0.8v5h5l0.8,0.8V35.9z"/>
	<path class="st1" d="M23.6,23.8c-0.4,0.3-0.8,0.4-1.3,0.5c-0.3,0.1-0.6,0.1-0.8,0.1V26h-1.4v-1.4c-0.3,0-0.6-0.1-0.8-0.2
		c-0.5-0.1-1-0.4-1.4-0.7c-0.4-0.3-0.7-0.7-0.9-1.2c-0.2-0.5-0.3-1-0.3-1.7h1.3c0,0.4,0.1,0.8,0.3,1.2c0.2,0.3,0.4,0.6,0.7,0.8
		c0.3,0.2,0.6,0.4,1,0.5c0.4,0.1,0.7,0.1,1.1,0.1c0.3,0,0.6,0,0.9-0.1c0.3-0.1,0.6-0.2,0.8-0.3c0.3-0.1,0.5-0.3,0.6-0.6
		c0.2-0.2,0.2-0.6,0.2-0.9c0-0.4-0.1-0.7-0.3-0.9c-0.2-0.2-0.4-0.4-0.8-0.6c-0.3-0.1-0.7-0.3-1.1-0.3l-1.2-0.3
		c-0.4-0.1-0.8-0.2-1.2-0.3c-0.4-0.1-0.7-0.3-1.1-0.5c-0.3-0.2-0.6-0.5-0.8-0.8C17,17.5,17,17.1,17,16.6c0-0.5,0.1-1,0.3-1.4
		c0.2-0.4,0.5-0.7,0.9-1c0.3-0.2,0.7-0.4,1.2-0.6c0.3-0.1,0.5-0.1,0.8-0.1v-1.4h1.4v1.4c0.2,0,0.5,0.1,0.7,0.1
		c0.5,0.1,0.9,0.3,1.2,0.6c0.3,0.3,0.6,0.6,0.8,1c0.2,0.4,0.3,0.9,0.3,1.5h-1.3c-0.1-0.8-0.3-1.3-0.8-1.7c-0.5-0.3-1-0.5-1.8-0.5
		c-0.3,0-0.6,0-0.9,0.1c-0.3,0.1-0.5,0.2-0.7,0.3c-0.2,0.1-0.4,0.3-0.5,0.6c-0.1,0.2-0.2,0.5-0.2,0.9c0,0.3,0.1,0.6,0.3,0.8
		c0.2,0.2,0.4,0.4,0.7,0.5c0.3,0.1,0.7,0.2,1.1,0.3c0.4,0.1,0.8,0.2,1.2,0.3c0.4,0.1,0.8,0.2,1.2,0.3c0.4,0.1,0.7,0.3,1.1,0.5
		c0.3,0.2,0.6,0.5,0.7,0.9c0.2,0.3,0.3,0.8,0.3,1.3c0,0.6-0.1,1-0.4,1.4C24.3,23.3,24,23.6,23.6,23.8z"/>
	<g>
		<g>
			<polygon class="st0" points="25.2,28.9 16.4,28.9 16.4,27.9 24.2,27.9 			"/>
			<polygon class="st0" points="28,31.6 26.9,30.6 16.4,30.6 16.4,31.6 			"/>
			<polygon class="st0" points="30.6,34.3 30.6,34.2 29.7,33.3 16.4,33.3 16.4,34.3 			"/>
		</g>
		<g>
			<polygon class="st0" points="21.7,28.9 30.6,28.9 30.6,27.9 22.8,27.9 			"/>
			<polygon class="st0" points="19,31.6 30.6,31.6 30.6,30.6 20,30.6 			"/>
			<polygon class="st0" points="30.6,34.3 30.6,33.3 17.3,33.3 17.1,33.5 16.4,34.2 16.4,34.3 			"/>
		</g>
	</g>
</g>
</svg>
