<?xml version="1.0" encoding="utf-8"?>
<!-- Generator: Adobe Illustrator 21.1.0, SVG Export Plug-In . SVG Version: 6.00 Build 0)  -->
<svg version="1.1" id="Layer_1" xmlns="http://www.w3.org/2000/svg" xmlns:xlink="http://www.w3.org/1999/xlink" x="0px" y="0px"
	 viewBox="0 0 48 47" style="enable-background:new 0 0 48 47;" xml:space="preserve">
<style type="text/css">
	.st0{fill:#838382;}
</style>
<g>
	<g>
		<path class="st0" d="M13.7,21.8h-1.3v-1.1h0.5c0.3,0,0.5-0.2,0.5-0.5v0v-2.4v0c0-0.3-0.2-0.5-0.5-0.5h-0.5v-1.1h1.3v-0.5h-1.5
			c-0.1,0-0.2,0.1-0.2,0.2v1.3h-0.5c-0.3,0-0.5,0.2-0.5,0.5v0v2.4v0c0,0.3,0.2,0.5,0.5,0.5H12V22c0,0.1,0.1,0.2,0.2,0.2h1.5
			L13.7,21.8z"/>
		<path class="st0" d="M34,22.2h1.5c0.1,0,0.2-0.1,0.2-0.2v-1.3h0.5c0.3,0,0.5-0.2,0.5-0.5v0v-2.4v0c0-0.3-0.2-0.5-0.5-0.5h-0.5
			v-1.3c0-0.1-0.1-0.2-0.2-0.2H34v0.5h1.3v1.1h-0.5c-0.3,0-0.5,0.2-0.5,0.5v0v2.4v0c0,0.3,0.2,0.5,0.5,0.5h0.5v1.1H34V22.2z"/>
	</g>
	<path class="st0" d="M36,33.5L36,33.5v-4.9c0-1.1-0.9-1.9-1.9-1.9h-0.5V8.8c0-0.2-0.1-0.3-0.2-0.4l-1.2-0.8c-0.3-0.2-0.7,0-0.7,0.4
		v5.7l-0.4-1c-0.5-1.3-1.7-2.2-3.1-2.2h-8.3c-1.4,0-2.7,0.9-3.1,2.2l-0.3,1V8c0-0.4-0.4-0.6-0.7-0.4l-1.2,0.8
		C14.1,8.5,14,8.6,14,8.8v17.9h-0.5c-1.1,0-1.9,0.9-1.9,1.9v4.9L36,33.5z M16.8,16.4h14v4.7h-14V16.4z M16.5,32.1h-1.6
		c-0.5,0-0.9-0.4-0.9-0.9v0c0-0.5,0.4-0.9,0.9-0.9h1.6c0.5,0,0.9,0.4,0.9,0.9v0C17.4,31.7,17,32.1,16.5,32.1z M27.1,32.4h-6.5
		c-0.5,0-1-0.4-1-1v-6c0-0.5,0.4-1,1-1h6.5c0.5,0,1,0.4,1,1v6C28,32,27.6,32.4,27.1,32.4z M32.8,32.1h-1.6c-0.5,0-0.9-0.4-0.9-0.9v0
		c0-0.5,0.4-0.9,0.9-0.9h1.6c0.5,0,0.9,0.4,0.9,0.9v0C33.7,31.7,33.3,32.1,32.8,32.1z M26.9,27.9h-6.2c-0.3,0-0.5-0.2-0.5-0.5v0
		c0-0.3,0.2-0.5,0.5-0.5h6.2c0.3,0,0.5,0.2,0.5,0.5v0C27.4,27.7,27.2,27.9,26.9,27.9z M26.9,26h-6.2c-0.3,0-0.5-0.2-0.5-0.5v0
		c0-0.3,0.2-0.5,0.5-0.5h6.2c0.3,0,0.5,0.2,0.5,0.5v0C27.4,25.8,27.2,26,26.9,26z M26.9,31.8h-6.2c-0.3,0-0.5-0.2-0.5-0.5v0
		c0-0.3,0.2-0.5,0.5-0.5h6.2c0.3,0,0.5,0.2,0.5,0.5v0C27.4,31.5,27.2,31.8,26.9,31.8z M26.9,29.9h-6.2c-0.3,0-0.5-0.2-0.5-0.5v0
		c0-0.3,0.2-0.5,0.5-0.5h6.2c0.3,0,0.5,0.2,0.5,0.5v0C27.4,29.6,27.2,29.9,26.9,29.9z"/>
	<path class="st0" d="M11.6,34.4h-0.8c-0.3,0-0.5,0.2-0.5,0.5v2.6c0,0.3,0.2,0.5,0.5,0.5h26c0.3,0,0.5-0.2,0.5-0.5v-2.6
		c0-0.3-0.2-0.5-0.5-0.5H36v0H11.6z"/>
	<g>
		<path class="st0" d="M12.9,40.6c0,0.5,0.4,1,1,1h2.5c0.5,0,1-0.4,1-1v-1.3h-4.4V40.6z"/>
		<path class="st0" d="M30.4,39.3v1.3c0,0.5,0.4,1,1,1h2.5c0.5,0,1-0.4,1-1v-1.3H30.4z"/>
	</g>
</g>
</svg>
