<?xml version="1.0" encoding="utf-8"?>
<!-- Generator: Adobe Illustrator 21.1.0, SVG Export Plug-In . SVG Version: 6.00 Build 0)  -->
<svg version="1.1" id="Layer_1" xmlns="http://www.w3.org/2000/svg" xmlns:xlink="http://www.w3.org/1999/xlink" x="0px" y="0px"
	 viewBox="0 0 48 47" style="enable-background:new 0 0 48 47;" xml:space="preserve">
<style type="text/css">
	.st0{fill-rule:evenodd;clip-rule:evenodd;fill:#838382;}
	.st1{fill:#838382;}
</style>
<g>
	<path class="st0" d="M13.9,6.7v6.1h2V6.7H13.9z M32.1,6.7v6.1h2V6.7H32.1z M38.1,16.8V37H9.8V16.8H38.1z M36.1,39
		c2.2,0,4.1-1.8,4.1-4.1V12.8c0-2.2-1.8-4.1-4.1-4.1h0v3c0,1.7-1.4,3-3,3c-1.7,0-3-1.4-3-3v-3H17.9v3c0,1.7-1.4,3-3,3
		c-1.7,0-3-1.4-3-3v-3h0c-2.2,0-4.1,1.8-4.1,4.1V35c0,2.2,1.8,4.1,4.1,4.1H36.1z"/>
	<g>
		<rect x="11.7" y="20.8" class="st0" width="5.5" height="4.1"/>
		<path class="st1" d="M25.2,21l-1.9,2l-0.5-0.7c-0.2-0.3-0.7-0.4-1-0.2c-0.3,0.2-0.4,0.7-0.2,1l1,1.4c0.1,0.2,0.3,0.3,0.6,0.3
			c0,0,0,0,0,0c0.2,0,0.4-0.1,0.5-0.2l2.5-2.6c0.3-0.3,0.3-0.8,0-1.1C25.9,20.7,25.5,20.7,25.2,21z"/>
	</g>
	<g>
		<rect x="21.2" y="29.2" class="st0" width="5.5" height="4.1"/>
		<rect x="30.8" y="29.2" class="st0" width="5.5" height="4.1"/>
	</g>
	<g>
		<g>
			<path class="st1" d="M12.6,30.2h-0.2V30h0.1c0,0,0.1,0,0.1-0.1v0v-0.4v0c0,0,0-0.1-0.1-0.1h-0.1v-0.2h0.2v-0.1h-0.3c0,0,0,0,0,0
				v0.2h-0.1c0,0-0.1,0-0.1,0.1v0v0.4v0c0,0,0,0.1,0.1,0.1h0.1v0.2c0,0,0,0,0,0L12.6,30.2L12.6,30.2z"/>
			<path class="st1" d="M16.3,30.3h0.3c0,0,0,0,0,0V30h0.1c0,0,0.1,0,0.1-0.1v0v-0.4v0c0,0,0-0.1-0.1-0.1h-0.1v-0.2c0,0,0,0,0,0
				h-0.3v0.1h0.2v0.2h-0.1c0,0-0.1,0-0.1,0.1v0v0.4v0c0,0,0,0.1,0.1,0.1h0.1v0.2L16.3,30.3L16.3,30.3z"/>
		</g>
		<path class="st1" d="M16.7,32.3L16.7,32.3v-0.9c0-0.2-0.2-0.4-0.4-0.4h-0.1v-3.3c0,0,0-0.1,0-0.1L16,27.6c-0.1,0-0.1,0-0.1,0.1
			v1.1l-0.1-0.2c-0.1-0.2-0.3-0.4-0.6-0.4h-1.5c-0.3,0-0.5,0.2-0.6,0.4l-0.1,0.2v-1.1c0-0.1-0.1-0.1-0.1-0.1l-0.2,0.1c0,0,0,0,0,0.1
			v3.3h-0.1c-0.2,0-0.4,0.2-0.4,0.4v0.9L16.7,32.3z M13.2,29.2h2.6V30h-2.6V29.2z M13.1,32.1h-0.3c-0.1,0-0.2-0.1-0.2-0.2v0
			c0-0.1,0.1-0.2,0.2-0.2h0.3c0.1,0,0.2,0.1,0.2,0.2v0C13.3,32,13.2,32.1,13.1,32.1z M15.1,32.1h-1.2c-0.1,0-0.2-0.1-0.2-0.2v-1.1
			c0-0.1,0.1-0.2,0.2-0.2h1.2c0.1,0,0.2,0.1,0.2,0.2V32C15.2,32.1,15.2,32.1,15.1,32.1z M16.1,32.1h-0.3c-0.1,0-0.2-0.1-0.2-0.2v0
			c0-0.1,0.1-0.2,0.2-0.2h0.3c0.1,0,0.2,0.1,0.2,0.2v0C16.3,32,16.2,32.1,16.1,32.1z M15,31.3h-1.1c0,0-0.1,0-0.1-0.1v0
			c0,0,0-0.1,0.1-0.1H15C15.1,31.1,15.1,31.2,15,31.3L15,31.3C15.1,31.3,15.1,31.3,15,31.3z M15,31h-1.1c0,0-0.1,0-0.1-0.1v0
			c0,0,0-0.1,0.1-0.1H15C15.1,30.8,15.1,30.8,15,31L15,31C15.1,30.9,15.1,31,15,31z M15,32h-1.1c0,0-0.1,0-0.1-0.1v0
			c0,0,0-0.1,0.1-0.1H15C15.1,31.8,15.1,31.9,15,32L15,32C15.1,32,15.1,32,15,32z M15,31.7h-1.1c0,0-0.1,0-0.1-0.1v0
			c0,0,0-0.1,0.1-0.1H15C15.1,31.5,15.1,31.5,15,31.7L15,31.7C15.1,31.6,15.1,31.7,15,31.7z"/>
		<path class="st1" d="M12.2,32.5h-0.1c0,0-0.1,0-0.1,0.1v0.5c0,0,0,0.1,0.1,0.1h4.8c0,0,0.1,0,0.1-0.1v-0.5c0,0,0-0.1-0.1-0.1h-0.1
			v0H12.2z"/>
		<g>
			<path class="st1" d="M12.5,33.6c0,0.1,0.1,0.2,0.2,0.2h0.5c0.1,0,0.2-0.1,0.2-0.2v-0.2h-0.8V33.6z"/>
			<path class="st1" d="M15.7,33.4v0.2c0,0.1,0.1,0.2,0.2,0.2h0.5c0.1,0,0.2-0.1,0.2-0.2v-0.2H15.7z"/>
		</g>
	</g>
	<g>
		<g>
			<path class="st1" d="M31.7,22.4h-0.2v-0.2h0.1c0,0,0.1,0,0.1-0.1v0v-0.4v0c0,0,0-0.1-0.1-0.1h-0.1v-0.2h0.2v-0.1h-0.3
				c0,0,0,0,0,0v0.2h-0.1c0,0-0.1,0-0.1,0.1v0v0.4v0c0,0,0,0.1,0.1,0.1h0.1v0.2c0,0,0,0,0,0L31.7,22.4L31.7,22.4z"/>
			<path class="st1" d="M35.4,22.4h0.3c0,0,0,0,0,0v-0.2h0.1c0,0,0.1,0,0.1-0.1v0v-0.4v0c0,0,0-0.1-0.1-0.1h-0.1v-0.2c0,0,0,0,0,0
				h-0.3v0.1h0.2v0.2h-0.1c0,0-0.1,0-0.1,0.1v0v0.4v0c0,0,0,0.1,0.1,0.1h0.1v0.2L35.4,22.4L35.4,22.4z"/>
		</g>
		<path class="st1" d="M35.8,24.5L35.8,24.5v-0.9c0-0.2-0.2-0.4-0.4-0.4h-0.1V20c0,0,0-0.1,0-0.1l-0.2-0.1c-0.1,0-0.1,0-0.1,0.1v1.1
			l-0.1-0.2c-0.1-0.2-0.3-0.4-0.6-0.4h-1.5c-0.3,0-0.5,0.2-0.6,0.4l-0.1,0.2v-1.1c0-0.1-0.1-0.1-0.1-0.1l-0.2,0.1c0,0,0,0,0,0.1v3.3
			h-0.1c-0.2,0-0.4,0.2-0.4,0.4v0.9L35.8,24.5z M32.2,21.4h2.6v0.9h-2.6V21.4z M32.2,24.3h-0.3c-0.1,0-0.2-0.1-0.2-0.2v0
			c0-0.1,0.1-0.2,0.2-0.2h0.3c0.1,0,0.2,0.1,0.2,0.2v0C32.3,24.2,32.3,24.3,32.2,24.3z M34.1,24.3h-1.2c-0.1,0-0.2-0.1-0.2-0.2V23
			c0-0.1,0.1-0.2,0.2-0.2h1.2c0.1,0,0.2,0.1,0.2,0.2v1.1C34.3,24.2,34.2,24.3,34.1,24.3z M35.2,24.3h-0.3c-0.1,0-0.2-0.1-0.2-0.2v0
			c0-0.1,0.1-0.2,0.2-0.2h0.3c0.1,0,0.2,0.1,0.2,0.2v0C35.3,24.2,35.3,24.3,35.2,24.3z M34.1,23.5H33c0,0-0.1,0-0.1-0.1v0
			c0,0,0-0.1,0.1-0.1h1.1C34.1,23.3,34.2,23.4,34.1,23.5L34.1,23.5C34.2,23.5,34.1,23.5,34.1,23.5z M34.1,23.1H33c0,0-0.1,0-0.1-0.1
			v0c0,0,0-0.1,0.1-0.1h1.1C34.1,23,34.2,23,34.1,23.1L34.1,23.1C34.2,23.1,34.1,23.1,34.1,23.1z M34.1,24.2H33c0,0-0.1,0-0.1-0.1v0
			c0,0,0-0.1,0.1-0.1h1.1C34.1,24,34.2,24.1,34.1,24.2L34.1,24.2C34.2,24.2,34.1,24.2,34.1,24.2z M34.1,23.8H33c0,0-0.1,0-0.1-0.1v0
			c0,0,0-0.1,0.1-0.1h1.1C34.1,23.7,34.2,23.7,34.1,23.8L34.1,23.8C34.2,23.8,34.1,23.8,34.1,23.8z"/>
		<path class="st1" d="M31.3,24.7h-0.1c0,0-0.1,0-0.1,0.1v0.5c0,0,0,0.1,0.1,0.1h4.8c0,0,0.1,0,0.1-0.1v-0.5c0,0,0-0.1-0.1-0.1h-0.1
			v0H31.3z"/>
		<g>
			<path class="st1" d="M31.5,25.8c0,0.1,0.1,0.2,0.2,0.2h0.5c0.1,0,0.2-0.1,0.2-0.2v-0.2h-0.8V25.8z"/>
			<path class="st1" d="M34.7,25.6v0.2c0,0.1,0.1,0.2,0.2,0.2h0.5c0.1,0,0.2-0.1,0.2-0.2v-0.2H34.7z"/>
		</g>
	</g>
</g>
</svg>
