<?xml version="1.0" encoding="utf-8"?>
<!-- Generator: Adobe Illustrator 21.1.0, SVG Export Plug-In . SVG Version: 6.00 Build 0)  -->
<svg version="1.1" id="Layer_1" xmlns="http://www.w3.org/2000/svg" xmlns:xlink="http://www.w3.org/1999/xlink" x="0px" y="0px"
	 viewBox="0 0 48 47" style="enable-background:new 0 0 48 47;" xml:space="preserve">
<style type="text/css">
	.st0{fill:#838382;}
	.st1{fill-rule:evenodd;clip-rule:evenodd;fill:#838382;}
</style>
<g>
	<g>
		<rect x="17.4" y="11.7" class="st0" width="11.8" height="5.5"/>
		<polygon class="st0" points="23.5,16.1 23.2,16.1 12.6,16.1 12.6,25.5 14.8,24.5 14.8,18.6 18.7,18.6 18.7,22.8 21.5,21.5 
			21.5,18.6 23.2,18.6 23.5,18.6 25.2,18.6 25.2,21.5 28,22.8 28,18.6 31.9,18.6 31.9,24.5 34.1,25.5 34.1,16.1 		"/>
		<path class="st0" d="M23.4,22.6L23.4,22.6L23.4,22.6L23.4,22.6L23.4,22.6L8,29.5l2.3,6.5c0.5,1.4,1.3,2.7,2.3,3.8c0,0,0,0,0,0l0,0
			c0.2-0.2,0.6-0.4,0.9-0.7l0.2-0.2c0.4-0.3,0.8-0.7,1.3-1c1.3-1,2.7-1.7,4.2-2.2c0.7-0.2,1.4-0.4,2.3-0.5l0,0l0.2,0
			c0.2,0,0.3,0,0.5-0.1l0.3-4.8c0.1-1.6,0.3-2.9,0.6-3.9l0.2-0.5l0.2,0.5c0.3,1,0.5,2.3,0.6,3.9l0.3,4.8c0.2,0,0.3,0,0.5,0.1l0.2,0
			l0,0c0.9,0.1,1.6,0.3,2.3,0.5c1.5,0.5,2.9,1.2,4.2,2.2c0.5,0.3,0.9,0.7,1.3,1l0.2,0.2c0.4,0.3,0.7,0.6,0.9,0.7l0,0c0,0,0,0,0,0
			c1-1.1,1.8-2.3,2.3-3.8l2.3-6.5L23.4,22.6z"/>
		<g>
			<rect x="21.2" y="8.4" class="st0" width="4.3" height="3.7"/>
			<rect x="21.2" y="6.8" class="st0" width="4.3" height="1.1"/>
		</g>
	</g>
	<rect x="12.1" y="30.8" class="st1" width="22.6" height="9.1"/>
</g>
</svg>
