<?xml version="1.0" encoding="utf-8"?>
<!-- Generator: Adobe Illustrator 22.0.1, SVG Export Plug-In . SVG Version: 6.00 Build 0)  -->
<svg version="1.1" id="Layer_1" xmlns="http://www.w3.org/2000/svg" xmlns:xlink="http://www.w3.org/1999/xlink" x="0px" y="0px"
	 viewBox="0 0 48 47" style="enable-background:new 0 0 48 47;" xml:space="preserve">
<style type="text/css">
	.st0{fill:#838382;}
</style>
<g>
	<g>
		<path class="st0" d="M24.1,35.2v1h-1.5v-1H24.1L24.1,35.2z M21.6,35.2v1h-1.5v-1H21.6L21.6,35.2z M19.1,35.2v1h-1.5v-1H19.1
			L19.1,35.2z M14.1,35.2v1h-1.5v-1H14.1L14.1,35.2z M16.6,35.2v1h-1.5v-1H16.6L16.6,35.2z M26.7,35.2v1h-1.5v-1H26.7L26.7,35.2z
			 M30.5,30.5l-3.2,3L11,33.8l-2.7-2.7H2.6l2.3,7.4v2.8h37.7l0.4-1.7l-2.7-1.1l5.6-8.6L30.5,30.5z"/>
	</g>
	<path class="st0" d="M26.7,31.4v0.8h-0.3L26.7,31.4L26.7,31.4z M24.4,32.1H24l0.8-2.4h0.4L24.4,32.1L24.4,32.1z M25.2,32.1l0.8-2.4
		h-0.4l-0.8,2.4H25.2L25.2,32.1z M26.4,29.8l-0.8,2.4H26l0.6-1.9v-0.5L26.4,29.8L26.4,29.8z M23.2,31v-1.2h0.4L23.2,31L23.2,31z
		 M24,29.8l-0.8,2.3v0.1h0.4l0.8-2.4L24,29.8L24,29.8z M22.9,29h-0.4v0.4v3.1v0.4h0.4H27h0.4v-0.4v-3.1V29H27H22.9L22.9,29z
		 M26.7,27v0.8h-0.3L26.7,27L26.7,27z M24.4,27.7H24l0.8-2.4h0.4L24.4,27.7L24.4,27.7z M25.2,27.7l0.8-2.4h-0.4l-0.8,2.4H25.2
		L25.2,27.7z M26.4,25.4l-0.8,2.4H26l0.6-1.9v-0.5H26.4L26.4,25.4z M23.2,26.6v-1.2h0.4L23.2,26.6L23.2,26.6z M24,25.4l-0.8,2.3v0.1
		h0.4l0.8-2.4H24L24,25.4z M22.5,24.6V25v3.1v0.4h0.4H27h0.4v-0.4V25v-0.4H27h-4.2H22.5z"/>
	<path class="st0" d="M18.3,12l1.2-0.5l0,0l-1.3,0.8C18.2,12.2,18.2,12.1,18.3,12L18.3,12z M17.8,12.6L17,13.1
		c-0.2-0.1-0.3-0.2-0.5-0.3l1.1-0.5C17.7,12.3,17.7,12.5,17.8,12.6L17.8,12.6z M16.3,13.5l-0.5,0.3l0.2-0.6L16.3,13.5L16.3,13.5z
		 M13.8,15.1l-1.1,0.7v-1.2L13.8,15.1L13.8,15.1z M11.4,16.6l-1.2,0.8l0.1-1.5L11.4,16.6L11.4,16.6z M9.4,17.9l-1.3,0.8v-2L9.4,17.9
		L9.4,17.9z M8.6,16.2L9.5,17l0.1-1.2L8.6,16.2L8.6,16.2z M10.7,15.3l1.3,0.8v-1.4L10.7,15.3L10.7,15.3z M13.5,14.1l1,0.5l0.3-0.2
		l0.3-1.1L13.5,14.1L13.5,14.1z M20.4,19.6v-6.9l0.4-0.3l0.5-0.3l-0.2-0.6l-0.5-1.3l-0.3-0.7l-0.7,0.3L4.5,16.5H2.6v5.8h2v4.6H7
		v-4.6h1.1v-1.7l11.6-7.4v6.5H17v4.2h5.9v-4.2L20.4,19.6L20.4,19.6z"/>
	<path class="st0" d="M38.6,28.5v0.8h-0.3L38.6,28.5L38.6,28.5z M36.4,29.2H36l0.8-2.4h0.4L36.4,29.2L36.4,29.2z M37.2,29.2l0.8-2.4
		h-0.4l-0.8,2.4H37.2L37.2,29.2z M38.4,26.9l-0.8,2.4H38l0.6-1.9v-0.5H38.4L38.4,26.9z M35.2,28.1v-1.2h0.4L35.2,28.1L35.2,28.1z
		 M36,26.9l-0.8,2.3v0.1h0.4l0.8-2.4H36L36,26.9z M34.8,26.1h-0.4v0.4v3.1V30h0.4H39h0.4v-0.4v-3.1v-0.4H39H34.8L34.8,26.1z
		 M38.6,24.1v0.8h-0.3L38.6,24.1L38.6,24.1z M36.4,24.8H36l0.8-2.4h0.4L36.4,24.8L36.4,24.8z M37.2,24.8l0.8-2.4h-0.4l-0.8,2.4H37.2
		L37.2,24.8z M38.4,22.4l-0.8,2.4H38l0.6-1.9v-0.5H38.4L38.4,22.4z M35.2,23.7v-1.2h0.4L35.2,23.7L35.2,23.7z M36,22.4l-0.8,2.3v0.1
		h0.4l0.8-2.4H36L36,22.4z M34.5,21.7v0.4v3.1v0.4h0.4H39h0.4v-0.4v-3.1v-0.4H39h-4.2H34.5z"/>
	<path class="st0" d="M44.3,28.5v0.8H44L44.3,28.5L44.3,28.5z M42.1,29.2h-0.4l0.8-2.4h0.4L42.1,29.2L42.1,29.2z M42.9,29.2l0.8-2.4
		h-0.4l-0.8,2.4H42.9L42.9,29.2z M44,26.9l-0.8,2.4h0.4l0.6-1.9v-0.5H44L44,26.9z M40.9,28.1v-1.2h0.4L40.9,28.1L40.9,28.1z
		 M41.6,26.9l-0.8,2.3v0.1h0.4l0.8-2.4H41.6L41.6,26.9z M40.5,26.1h-0.4v0.4v3.1V30h0.4h4.2H45v-0.4v-3.1v-0.4h-0.4H40.5L40.5,26.1z
		 M44.3,24.1v0.8H44L44.3,24.1L44.3,24.1z M42.1,24.8h-0.4l0.8-2.4h0.4L42.1,24.8L42.1,24.8z M42.9,24.8l0.8-2.4h-0.4l-0.8,2.4H42.9
		L42.9,24.8z M44,22.4l-0.8,2.4h0.4l0.6-1.9v-0.5H44L44,22.4z M40.9,23.7v-1.2h0.4L40.9,23.7L40.9,23.7z M41.6,22.4l-0.8,2.3v0.1
		h0.4l0.8-2.4H41.6L41.6,22.4z M40.1,21.7v0.4v3.1v0.4h0.4h4.2H45v-0.4v-3.1v-0.4h-0.4h-4.2H40.1z"/>
	<path class="st0" d="M32.9,28.5v0.8h-0.3L32.9,28.5L32.9,28.5z M30.6,29.2h-0.4l0.8-2.4h0.4L30.6,29.2L30.6,29.2z M31.4,29.2
		l0.8-2.4h-0.4L31,29.2H31.4L31.4,29.2z M32.6,26.9l-0.8,2.4h0.4l0.6-1.9v-0.5H32.6L32.6,26.9z M29.4,28.1v-1.2h0.4L29.4,28.1
		L29.4,28.1z M30.2,26.9l-0.8,2.3v0.1h0.4l0.8-2.4H30.2L30.2,26.9z M29.1,26.1h-0.4v0.4v3.1V30h0.4h4.2h0.4v-0.4v-3.1v-0.4h-0.4
		H29.1L29.1,26.1z M32.9,24.1v0.8h-0.3L32.9,24.1L32.9,24.1z M30.6,24.8h-0.4l0.8-2.4h0.4L30.6,24.8L30.6,24.8z M31.4,24.8l0.8-2.4
		h-0.4L31,24.8H31.4L31.4,24.8z M32.6,22.4l-0.8,2.4h0.4l0.6-1.9v-0.5H32.6L32.6,22.4z M29.4,23.7v-1.2h0.4L29.4,23.7L29.4,23.7z
		 M30.2,22.4l-0.8,2.3v0.1h0.4l0.8-2.4H30.2L30.2,22.4z M28.7,21.7v0.4v3.1v0.4h0.4h4.2h0.4v-0.4v-3.1v-0.4h-0.4h-4.2H28.7z"/>
</g>
</svg>
