<?xml version="1.0" encoding="utf-8"?>
<!-- Generator: Adobe Illustrator 21.1.0, SVG Export Plug-In . SVG Version: 6.00 Build 0)  -->
<svg version="1.1" id="Layer_1" xmlns="http://www.w3.org/2000/svg" xmlns:xlink="http://www.w3.org/1999/xlink" x="0px" y="0px"
	 viewBox="0 0 48 47" style="enable-background:new 0 0 48 47;" xml:space="preserve">
<style type="text/css">
	.st0{fill-rule:evenodd;clip-rule:evenodd;fill:#838382;}
	.st1{fill:#838382;}
</style>
<g>
	<path class="st0" d="M13.6,8.4v6.1h2V8.4H13.6z M31.8,8.4v6.1h2V8.4H31.8z M37.8,18.5v20.2H9.6V18.5H37.8z M35.8,40.7
		c2.2,0,4.1-1.8,4.1-4.1V14.5c0-2.2-1.8-4.1-4.1-4.1h0v3c0,1.7-1.4,3-3,3c-1.7,0-3-1.4-3-3v-3H17.7v3c0,1.7-1.4,3-3,3
		c-1.7,0-3-1.4-3-3v-3h0c-2.2,0-4.1,1.8-4.1,4.1v22.2c0,2.2,1.8,4.1,4.1,4.1H35.8z"/>
	<g>
		<rect x="21.1" y="22.5" class="st0" width="5.5" height="4.1"/>
		<rect x="11.5" y="22.5" class="st0" width="5.5" height="4.1"/>
		<g>
			<g>
				<rect x="32.4" y="22.6" class="st1" width="2" height="1"/>
				<polygon class="st1" points="33.4,23.3 33.4,23.3 31.5,23.3 31.5,25 31.9,24.8 31.9,23.8 32.6,23.8 32.6,24.5 33.1,24.3 
					33.1,23.8 33.4,23.8 33.4,23.8 33.7,23.8 33.7,24.3 34.2,24.5 34.2,23.8 34.9,23.8 34.9,24.8 35.3,25 35.3,23.3 				"/>
				<path class="st1" d="M33.4,24.4L33.4,24.4L33.4,24.4L33.4,24.4L33.4,24.4l-2.7,1.2l0.4,1.1c0.1,0.2,0.2,0.5,0.4,0.6c0,0,0,0,0,0
					l0,0c0,0,0.1-0.1,0.2-0.1l0,0c0.1-0.1,0.1-0.1,0.2-0.2c0.2-0.2,0.5-0.3,0.7-0.4c0.1,0,0.3-0.1,0.4-0.1l0,0l0,0c0,0,0.1,0,0.1,0
					l0.1-0.8c0-0.3,0.1-0.5,0.1-0.7l0-0.1l0,0.1c0.1,0.2,0.1,0.4,0.1,0.7l0.1,0.8c0,0,0.1,0,0.1,0l0,0l0,0c0.1,0,0.3,0.1,0.4,0.1
					c0.3,0.1,0.5,0.2,0.7,0.4c0.1,0.1,0.2,0.1,0.2,0.2l0,0c0.1,0.1,0.1,0.1,0.2,0.1l0,0c0,0,0,0,0,0c0.2-0.2,0.3-0.4,0.4-0.6
					l0.4-1.1L33.4,24.4z"/>
				<g>
					<rect x="33" y="22" class="st1" width="0.8" height="0.6"/>
					<rect x="33" y="21.7" class="st1" width="0.8" height="0.2"/>
				</g>
			</g>
			<rect x="31.4" y="25.9" class="st0" width="3.9" height="1.6"/>
		</g>
	</g>
	<g>
		<rect x="20.9" y="30.9" class="st0" width="5.5" height="4.1"/>
		<rect x="30.5" y="30.9" class="st0" width="5.5" height="4.1"/>
		<g>
			<g>
				<rect x="13.1" y="31" transform="matrix(-1 -4.447832e-11 4.447832e-11 -1 28.157 62.9297)" class="st1" width="2" height="1"/>
				<polygon class="st1" points="14.1,31.8 14.1,31.8 15.9,31.8 15.9,33.4 15.6,33.2 15.6,32.2 14.9,32.2 14.9,32.9 14.4,32.7 
					14.4,32.2 14.1,32.2 14.1,32.2 13.8,32.2 13.8,32.7 13.3,32.9 13.3,32.2 12.6,32.2 12.6,33.2 12.2,33.4 12.2,31.8 				"/>
				<path class="st1" d="M14.1,32.9L14.1,32.9L14.1,32.9L14.1,32.9L14.1,32.9l2.7,1.2l-0.4,1.1c-0.1,0.2-0.2,0.5-0.4,0.6
					c0,0,0,0,0,0l0,0c0,0-0.1-0.1-0.2-0.1l0,0c-0.1-0.1-0.1-0.1-0.2-0.2c-0.2-0.2-0.5-0.3-0.7-0.4c-0.1,0-0.3-0.1-0.4-0.1l0,0l0,0
					c0,0-0.1,0-0.1,0l-0.1-0.8c0-0.3-0.1-0.5-0.1-0.7l0-0.1l0,0.1c-0.1,0.2-0.1,0.4-0.1,0.7L13.9,35c0,0-0.1,0-0.1,0l0,0l0,0
					c-0.1,0-0.3,0.1-0.4,0.1c-0.3,0.1-0.5,0.2-0.7,0.4c-0.1,0.1-0.2,0.1-0.2,0.2l0,0c-0.1,0.1-0.1,0.1-0.2,0.1l0,0c0,0,0,0,0,0
					c-0.2-0.2-0.3-0.4-0.4-0.6l-0.4-1.1L14.1,32.9z"/>
				<g>
					
						<rect x="13.7" y="30.4" transform="matrix(-1 -4.353374e-11 4.353374e-11 -1 28.157 61.4668)" class="st1" width="0.8" height="0.6"/>
					
						<rect x="13.7" y="30.1" transform="matrix(-1 -4.837076e-11 4.837076e-11 -1 28.157 60.4683)" class="st1" width="0.8" height="0.2"/>
				</g>
			</g>
			<rect x="12.1" y="34.3" class="st0" width="3.9" height="1.6"/>
		</g>
	</g>
</g>
</svg>
