<?xml version="1.0" encoding="utf-8"?>
<!-- Generator: Adobe Illustrator 22.0.1, SVG Export Plug-In . SVG Version: 6.00 Build 0)  -->
<svg version="1.1" id="Layer_1" xmlns="http://www.w3.org/2000/svg" xmlns:xlink="http://www.w3.org/1999/xlink" x="0px" y="0px"
	 viewBox="0 0 48 47" style="enable-background:new 0 0 48 47;" xml:space="preserve">
<style type="text/css">
	.st0{fill-rule:evenodd;clip-rule:evenodd;fill:#838382;}
</style>
<path class="st0" d="M24,36.5c-10.1,0-18.4-12.2-18.4-12.6c0-0.5,8.2-12.7,18.4-12.7c10.2,0,18.6,12.7,18.4,12.7
	C42.3,23.8,34.2,36.5,24,36.5z M23.9,15.3c-4.3,0-7.8,3.7-7.8,8.4c0,4.6,3.5,8.4,7.8,8.4c4.3,0,7.8-3.8,7.8-8.4
	C31.7,19,28.2,15.3,23.9,15.3z M23.9,27.4c-2,0-3.7-1.8-3.7-4c0-2.2,1.7-4,3.7-4c2,0,3.7,1.8,3.7,4C27.6,25.6,25.9,27.4,23.9,27.4z"
	/>
</svg>
