<?xml version="1.0" encoding="utf-8"?>
<!-- Generator: Adobe Illustrator 21.1.0, SVG Export Plug-In . SVG Version: 6.00 Build 0)  -->
<svg version="1.1" id="Layer_1" xmlns="http://www.w3.org/2000/svg" xmlns:xlink="http://www.w3.org/1999/xlink" x="0px" y="0px"
	 viewBox="0 0 48 47" style="enable-background:new 0 0 48 47;" xml:space="preserve">
<style type="text/css">
	.st0{fill:#838382;}
	.st1{fill-rule:evenodd;clip-rule:evenodd;fill:#838382;}
</style>
<g>
	<path class="st0" d="M27.8,9.2H11.6V40h25V18L27.8,9.2z M32.8,36.1H15.5V13h10.8l0.8,0.8v5h5l0.8,0.8V36.1z"/>
	<path class="st1" d="M24.3,25.2c-0.4,0.3-0.9,0.5-1.4,0.6c-0.3,0.1-0.6,0.1-0.9,0.2v1.5h-1.5v-1.6c-0.3,0-0.6-0.1-0.9-0.2
		c-0.6-0.2-1-0.4-1.5-0.7c-0.4-0.3-0.8-0.7-1-1.3c-0.2-0.5-0.4-1.1-0.4-1.8h1.4c0,0.5,0.1,0.9,0.3,1.2c0.2,0.3,0.4,0.6,0.7,0.9
		c0.3,0.2,0.6,0.4,1,0.5c0.4,0.1,0.8,0.2,1.2,0.2c0.3,0,0.7,0,1-0.1c0.3-0.1,0.6-0.2,0.9-0.3c0.3-0.2,0.5-0.4,0.7-0.6
		c0.2-0.3,0.3-0.6,0.3-1c0-0.4-0.1-0.7-0.3-1c-0.2-0.2-0.5-0.5-0.8-0.6c-0.3-0.2-0.7-0.3-1.1-0.4l-1.3-0.3c-0.5-0.1-0.9-0.2-1.3-0.4
		c-0.4-0.1-0.8-0.3-1.1-0.5c-0.3-0.2-0.6-0.5-0.8-0.9c-0.2-0.3-0.3-0.8-0.3-1.3c0-0.6,0.1-1.1,0.3-1.5c0.2-0.4,0.5-0.8,0.9-1
		c0.4-0.3,0.8-0.5,1.3-0.6c0.3-0.1,0.6-0.1,0.8-0.2v-1.6h1.5v1.6c0.3,0,0.5,0.1,0.8,0.2c0.5,0.1,0.9,0.4,1.3,0.7
		c0.4,0.3,0.7,0.7,0.9,1.1c0.2,0.5,0.3,1,0.4,1.6h-1.4c-0.1-0.8-0.4-1.4-0.9-1.8c-0.5-0.4-1.1-0.6-1.9-0.6c-0.3,0-0.6,0-0.9,0.1
		c-0.3,0.1-0.6,0.2-0.8,0.3c-0.2,0.1-0.4,0.3-0.6,0.6c-0.1,0.2-0.2,0.6-0.2,0.9c0,0.4,0.1,0.6,0.3,0.9c0.2,0.2,0.5,0.4,0.8,0.5
		c0.3,0.1,0.7,0.3,1.2,0.3c0.4,0.1,0.9,0.2,1.3,0.3c0.4,0.1,0.9,0.2,1.3,0.4c0.4,0.1,0.8,0.3,1.2,0.6c0.3,0.2,0.6,0.6,0.8,0.9
		c0.2,0.4,0.3,0.8,0.3,1.4c0,0.6-0.1,1.1-0.4,1.6C25,24.6,24.7,24.9,24.3,25.2z"/>
	<g>
		<path class="st0" d="M22.9,30.3h0.7L21.7,35h-0.1L20,31.2L18.5,35h-0.1l-1.9-4.6h0.7l1.3,3.2l1.3-3.2h0.6l1.3,3.2L22.9,30.3z"/>
		<path class="st0" d="M28,33.9v0.7c-0.5,0.3-1,0.4-1.7,0.4c-0.5,0-1-0.1-1.3-0.3c-0.4-0.2-0.6-0.5-0.9-0.9
			c-0.2-0.4-0.3-0.8-0.3-1.2c0-0.7,0.2-1.2,0.7-1.7c0.5-0.5,1.1-0.7,1.8-0.7c0.5,0,1,0.1,1.6,0.4v0.7c-0.5-0.3-1.1-0.5-1.6-0.5
			c-0.5,0-1,0.2-1.3,0.5c-0.3,0.3-0.5,0.8-0.5,1.3c0,0.5,0.2,0.9,0.5,1.2c0.3,0.3,0.8,0.5,1.3,0.5C27,34.4,27.5,34.2,28,33.9z"/>
		<path class="st0" d="M28.8,34.9v-4.6h1.5c0.4,0,0.8,0.1,1.1,0.4c0.3,0.2,0.4,0.6,0.4,1c0,0.3-0.1,0.5-0.2,0.7
			c-0.1,0.2-0.3,0.4-0.6,0.5c-0.2,0.1-0.6,0.1-1,0.1h-0.5v2H28.8z M30.2,30.9h-0.7v1.4h0.7c0.3,0,0.5-0.1,0.6-0.2
			C31,32,31,31.9,31,31.6C31,31.1,30.8,30.9,30.2,30.9z"/>
	</g>
</g>
</svg>
