<?xml version="1.0" encoding="utf-8"?>
<!-- Generator: Adobe Illustrator 22.0.1, SVG Export Plug-In . SVG Version: 6.00 Build 0)  -->
<svg version="1.1" id="Layer_1" xmlns="http://www.w3.org/2000/svg" xmlns:xlink="http://www.w3.org/1999/xlink" x="0px" y="0px"
	 viewBox="0 0 48 47" style="enable-background:new 0 0 48 47;" xml:space="preserve">
<style type="text/css">
	.st0{fill:#FFFFFF;}
</style>
<g>
	<path class="st0" d="M7.4,19.7h12c0.3,0,0.5-0.2,0.5-0.5v-12c0-0.3-0.2-0.5-0.5-0.5h-12c-0.3,0-0.5,0.2-0.5,0.5v12
		C6.9,19.5,7.1,19.7,7.4,19.7z"/>
	<path class="st0" d="M13,17.6c-0.2,0-0.4,0.4-0.4,0.9v11.3c0,0.5,0.2,0.9,0.4,0.9h0.9c0.2,0,0.4-0.4,0.4-0.9V18.5
		c0-0.5-0.2-0.9-0.4-0.9H13z"/>
	<path class="st0" d="M34.4,17.6c-0.2,0-0.4,0.4-0.4,1v12.6c0,0.5,0.2,1,0.4,1h0.9c0.2,0,0.4-0.4,0.4-1V18.6c0-0.5-0.2-1-0.4-1H34.4
		z"/>
	<path class="st0" d="M29.9,12.4h-11c-0.6,0-1.1,0.2-1.1,0.4v0.9c0,0.2,0.5,0.4,1.1,0.4h11c0.6,0,1.1-0.2,1.1-0.4v-0.9
		C31,12.6,30.5,12.4,29.9,12.4z"/>
	<path class="st0" d="M34.8,6.7c-3.6,0-6.5,2.9-6.5,6.5s2.9,6.5,6.5,6.5c3.6,0,6.5-2.9,6.5-6.5S38.4,6.7,34.8,6.7z"/>
	<path class="st0" d="M28.8,40.3h12c0.3,0,0.5-0.2,0.5-0.5v-12c0-0.3-0.2-0.5-0.5-0.5h-12c-0.3,0-0.5,0.2-0.5,0.5v12
		C28.3,40.1,28.5,40.3,28.8,40.3z"/>
	<path class="st0" d="M13.4,27.3c-3.6,0-6.5,2.9-6.5,6.5c0,3.6,2.9,6.5,6.5,6.5s6.5-2.9,6.5-6.5C19.9,30.3,17,27.3,13.4,27.3z"/>
</g>
</svg>
