<?xml version="1.0" encoding="utf-8"?>
<!-- Generator: Adobe Illustrator 22.0.1, SVG Export Plug-In . SVG Version: 6.00 Build 0)  -->
<svg version="1.1" id="Layer_1" xmlns="http://www.w3.org/2000/svg" xmlns:xlink="http://www.w3.org/1999/xlink" x="0px" y="0px"
	 viewBox="0 0 48 47" style="enable-background:new 0 0 48 47;" xml:space="preserve">
<style type="text/css">
	.st0{fill:#838382;}
</style>
<g>
	<path class="st0" d="M42.9,13.9C42.9,13.9,42.9,13.9,42.9,13.9c-9.8,5-18.1-11.8-28-6.2c-0.1,0-0.1,0.1-0.2,0.1
		c0.1,6.3-1.2,12.9-3.9,19.4c0.1,0,0.1-0.1,0.2-0.1c11.7-5.1,16.3,10.8,27.9,6.2c0,0,0,0,0,0c0.1,0,0.1-0.1,0.2-0.1
		c2.7-6.5,4.1-13.1,3.9-19.4C43,13.8,43,13.9,42.9,13.9z M39.7,15c0,1.3-0.1,2.5-0.2,3.8c-1.1,0.1-2.1,0-3.2-0.2
		c0.1-1.3,0.2-2.6,0.3-3.9C37.6,14.9,38.6,15.1,39.7,15z M32.7,21.3c0.2-1.3,0.4-2.6,0.6-3.9c1,0.5,2,0.9,3,1.1
		c-0.1,1.3-0.3,2.6-0.6,3.9C34.7,22.2,33.7,21.8,32.7,21.3z M26.9,17.8c0.2-1.3,0.3-2.6,0.4-3.9c1,0.6,1.9,1.3,2.9,1.9
		c-0.1,1.3-0.3,2.6-0.5,3.9C28.8,19,27.8,18.4,26.9,17.8z M20.9,14.8c0.2-1.3,0.3-2.6,0.4-3.9c1,0.3,2,0.7,3,1.2
		c-0.1,1.3-0.2,2.6-0.4,3.9C22.9,15.5,21.9,15.1,20.9,14.8z M20.2,18.6c-1-0.3-2.1-0.4-3.2-0.3c0.3-1.3,0.5-2.5,0.7-3.8
		c1.1-0.1,2.1,0.1,3.2,0.3C20.7,16.1,20.5,17.4,20.2,18.6z M33.5,13.5c0,1.3-0.1,2.6-0.2,3.9c-1-0.5-2-1.1-3-1.7
		c0.1-1.3,0.2-2.6,0.2-4C31.5,12.4,32.5,13,33.5,13.5z M27.4,9.8c0,1.3,0,2.7-0.1,4c-1-0.6-2-1.2-3-1.7c0.1-1.3,0.1-2.6,0.1-4
		C25.4,8.6,26.4,9.2,27.4,9.8z M21.3,7c0,1.3,0,2.6,0,3.9c-1-0.3-2.1-0.4-3.2-0.3c0.1-1.3,0.1-2.5,0-3.8C19.2,6.7,20.3,6.7,21.3,7z
		 M14.8,11.6c1.1-0.6,2.2-0.9,3.3-1c-0.1,1.3-0.2,2.6-0.4,3.8c-1.1,0.1-2.2,0.4-3.3,0.9C14.6,14.1,14.7,12.8,14.8,11.6z M13.6,19.2
		c1.2-0.5,2.3-0.8,3.4-0.9c-0.3,1.3-0.6,2.5-1,3.8c-1.1,0.1-2.3,0.4-3.5,0.9C12.9,21.7,13.3,20.5,13.6,19.2z M14.7,25.8
		c0.5-1.2,0.9-2.5,1.3-3.7c1.1-0.1,2.2,0,3.2,0.3c-0.4,1.2-0.8,2.4-1.3,3.6C17,25.8,15.9,25.7,14.7,25.8z M23.7,28.9
		c-0.9-0.6-1.8-1.2-2.8-1.6c0.5-1.2,0.9-2.4,1.3-3.6c-1-0.5-1.9-0.9-2.9-1.2c0.4-1.2,0.7-2.5,1-3.8c1,0.3,2,0.7,3,1.2
		c0.3-1.3,0.5-2.5,0.7-3.8c1,0.5,2,1.1,2.9,1.7c-0.2,1.3-0.4,2.6-0.7,3.8c-0.9-0.6-1.9-1.2-2.9-1.7c-0.3,1.3-0.6,2.5-1,3.7
		c1,0.5,1.9,1.1,2.8,1.7C24.7,26.5,24.2,27.7,23.7,28.9z M29.2,32.3c-0.9-0.5-1.9-1.1-2.8-1.7c0.5-1.2,1-2.3,1.4-3.5
		c-0.9-0.6-1.8-1.2-2.8-1.8c0.4-1.2,0.7-2.5,1-3.7c0.9,0.6,1.9,1.3,2.8,1.9c0.3-1.2,0.6-2.5,0.8-3.8c1,0.6,1.9,1.2,2.9,1.7
		c-0.2,1.3-0.5,2.5-0.9,3.8c-1-0.5-1.9-1.1-2.9-1.7c0,0,0,0,0,0c-0.3,1.3-0.7,2.5-1.1,3.7c0,0,0,0,0,0c0.9,0.6,1.9,1.2,2.8,1.7
		C30.2,30,29.7,31.2,29.2,32.3z M35.4,33.9c-1.1,0.1-2.2-0.1-3.2-0.4c0.5-1.2,1-2.4,1.5-3.6c-1-0.3-2-0.7-3-1.2
		c0.4-1.2,0.8-2.4,1.2-3.7c1,0.5,2,0.9,3,1.1c0.3-1.2,0.6-2.5,0.9-3.8c1,0.2,2.1,0.3,3.2,0.2c-0.2,1.3-0.5,2.5-0.9,3.8
		c-1.1,0.1-2.2,0-3.2-0.2c0,0,0,0,0,0c-0.3,1.3-0.7,2.5-1.2,3.7c0,0,0,0,0,0c1,0.3,2.1,0.4,3.2,0.3C36.4,31.5,35.9,32.7,35.4,33.9z
		 M40.4,29.3c-1.3,0.6-2.5,0.9-3.6,1c0.4-1.2,0.8-2.5,1.2-3.8c1.1-0.1,2.3-0.4,3.5-1C41.2,26.7,40.9,28,40.4,29.3z M42.3,21.6
		c-1.2,0.6-2.3,0.9-3.4,1c0.2-1.3,0.4-2.6,0.5-3.8c1.1-0.1,2.2-0.4,3.3-1C42.7,19.1,42.5,20.3,42.3,21.6z"/>
	<rect x="-9.1" y="24" transform="matrix(0.1992 -0.9799 0.9799 0.1992 -15.6463 30.1585)" class="st0" width="39.5" height="1.4"/>
</g>
</svg>
